<svg width="96" height="96" viewBox="0 0 96 96" fill="none" xmlns="http://www.w3.org/2000/svg">
<path d="M20.7679 20.768L16.5117 16.5117C16.4939 16.5305 16.4755 16.5466 16.4577 16.5644C8.0941 24.9275 3.38456 36.2635 3.35996 48.091C3.33536 59.9185 7.99771 71.274 16.3264 79.6718L20.5827 75.4156C13.3625 68.1429 9.3261 58.3006 9.36084 48.0527C9.39557 37.8047 13.4986 27.99 20.7679 20.7665V20.768Z" fill="#121518"/>
<path d="M79.7004 16.5652C79.6254 16.4902 79.5472 16.4165 79.4711 16.3413L75.2148 20.5976C78.8583 24.1724 81.7576 28.4335 83.7454 33.1348C85.7331 37.8362 86.77 42.8847 86.7962 47.9889C86.8223 53.0932 85.8372 58.1521 83.8977 62.8736C81.9582 67.595 79.1027 71.8856 75.4961 75.4976L79.7523 79.7538C88.1155 71.3629 92.8072 59.9961 92.7973 48.1492C92.7874 36.3022 88.0768 24.9433 79.6997 16.5663L79.7004 16.5652Z" fill="#121518"/>
<path d="M28.7856 28.7854C23.6459 33.8844 20.7397 40.8145 20.7049 48.0543C20.6701 55.2941 23.5097 62.2518 28.6002 67.3999L32.8409 63.1592C28.8769 59.1349 26.6704 53.703 26.7051 48.0543C26.7399 42.4057 29.0131 37.0013 33.0263 33.0261L28.7856 28.7854Z" fill="#121518"/>
<path d="M62.9575 32.855C64.9888 34.8214 66.6091 37.1718 67.7242 39.7697C68.8393 42.3677 69.427 45.1613 69.4532 47.9883C69.4793 50.8154 68.9434 53.6194 67.8766 56.2375C66.8098 58.8557 65.2333 61.2357 63.2388 63.2394L67.4813 67.4812C70.0336 64.9211 72.0526 61.8801 73.4213 58.5343C74.7901 55.1885 75.4814 51.6043 75.4552 47.9895C75.4291 44.3746 74.686 40.8009 73.2689 37.4752C71.8519 34.1495 69.7891 31.1381 67.2001 28.6152L62.9575 32.855Z" fill="#121518"/>
<path d="M55.2687 40.5438C53.5101 38.894 51.2366 37.9008 48.8313 37.7317C46.4259 37.5625 44.0357 38.2276 42.0636 39.615C40.0914 41.0024 38.6577 43.0272 38.0042 45.3483C37.3507 47.6694 37.5172 50.1447 38.4758 52.3573C39.4344 54.5699 41.1263 56.3844 43.2666 57.4951C45.4068 58.6058 47.8646 58.9448 50.2256 58.4549C52.5866 57.9651 54.7066 56.6763 56.2283 54.8058C57.75 52.9353 58.5804 50.5974 58.5796 48.1861C58.5805 46.7534 58.2872 45.3358 57.7176 44.0212C57.1481 42.7066 56.3145 41.523 55.2687 40.5438ZM48.0796 52.6861C47.1896 52.6861 46.3195 52.4222 45.5795 51.9277C44.8395 51.4333 44.2627 50.7305 43.9221 49.9082C43.5815 49.0859 43.4924 48.1811 43.666 47.3082C43.8397 46.4353 44.2683 45.6335 44.8976 45.0041C45.5269 44.3748 46.3287 43.9462 47.2017 43.7726C48.0746 43.5989 48.9794 43.6881 49.8016 44.0287C50.6239 44.3692 51.3267 44.946 51.8212 45.686C52.3156 46.4261 52.5796 47.2961 52.5796 48.1861C52.5796 48.7771 52.4632 49.3622 52.237 49.9082C52.0109 50.4542 51.6794 50.9502 51.2615 51.3681C50.8437 51.786 50.3476 52.1174 49.8016 52.3436C49.2557 52.5697 48.6705 52.6861 48.0796 52.6861Z" fill="#121518"/>
</svg>
