<svg width="96" height="96" viewBox="0 0 96 96" fill="none" xmlns="http://www.w3.org/2000/svg">
<path d="M20.7681 20.768L16.5118 16.5117C16.494 16.5305 16.4756 16.5466 16.4578 16.5644C8.09423 24.9275 3.38468 36.2635 3.36008 48.091C3.33548 59.9185 7.99783 71.274 16.3266 79.6718L20.5828 75.4156C13.3627 68.1429 9.32622 58.3006 9.36096 48.0527C9.3957 37.8047 13.4988 27.99 20.7681 20.7665V20.768Z" fill="#ECEFFA"/>
<path d="M79.7004 16.5652C79.6254 16.4902 79.5473 16.4165 79.4711 16.3413L75.2149 20.5976C78.8583 24.1724 81.7576 28.4335 83.7454 33.1348C85.7332 37.8362 86.7701 42.8847 86.7962 47.9889C86.8224 53.0932 85.8372 58.1521 83.8977 62.8736C81.9582 67.595 79.1027 71.8856 75.4961 75.4976L79.7524 79.7538C88.1155 71.3629 92.8072 59.9961 92.7973 48.1492C92.7874 36.3022 88.0768 24.9433 79.6997 16.5663L79.7004 16.5652Z" fill="#ECEFFA"/>
<path d="M28.7856 28.7854C23.6459 33.8844 20.7396 40.8145 20.7048 48.0543C20.67 55.2941 23.5096 62.2518 28.6001 67.3999L32.8408 63.1592C28.8768 59.1349 26.6703 53.703 26.705 48.0543C26.7398 42.4057 29.013 37.0013 33.0262 33.0261L28.7856 28.7854Z" fill="#ECEFFA"/>
<path d="M62.9574 32.855C64.9887 34.8214 66.609 37.1718 67.7241 39.7697C68.8392 42.3677 69.4269 45.1613 69.4531 47.9883C69.4792 50.8154 68.9433 53.6194 67.8765 56.2375C66.8097 58.8557 65.2332 61.2357 63.2387 63.2394L67.4812 67.4812C70.0335 64.9211 72.0525 61.8801 73.4212 58.5343C74.79 55.1885 75.4813 51.6043 75.4551 47.9895C75.429 44.3746 74.6859 40.8009 73.2688 37.4752C71.8518 34.1495 69.789 31.1381 67.2 28.6152L62.9574 32.855Z" fill="#ECEFFA"/>
<path d="M55.2686 40.5438C53.5101 38.894 51.2366 37.9008 48.8312 37.7317C46.4258 37.5625 44.0357 38.2276 42.0635 39.615C40.0913 41.0024 38.6577 43.0272 38.0041 45.3483C37.3506 47.6694 37.5172 50.1447 38.4757 52.3573C39.4343 54.5699 41.1263 56.3844 43.2665 57.4951C45.4068 58.6058 47.8645 58.9448 50.2255 58.4549C52.5865 57.9651 54.7065 56.6763 56.2282 54.8058C57.7499 52.9353 58.5803 50.5974 58.5795 48.1861C58.5805 46.7534 58.2871 45.3358 57.7176 44.0212C57.148 42.7066 56.3145 41.523 55.2686 40.5438ZM48.0795 52.6861C47.1895 52.6861 46.3195 52.4222 45.5794 51.9277C44.8394 51.4333 44.2626 50.7305 43.922 49.9082C43.5815 49.0859 43.4923 48.1811 43.666 47.3082C43.8396 46.4353 44.2682 45.6335 44.8975 45.0041C45.5269 44.3748 46.3287 43.9462 47.2016 43.7726C48.0745 43.5989 48.9793 43.6881 49.8016 44.0287C50.6238 44.3692 51.3267 44.946 51.8211 45.686C52.3156 46.4261 52.5795 47.2961 52.5795 48.1861C52.5795 48.7771 52.4631 49.3622 52.237 49.9082C52.0108 50.4542 51.6794 50.9502 51.2615 51.3681C50.8436 51.786 50.3475 52.1174 49.8016 52.3436C49.2556 52.5697 48.6705 52.6861 48.0795 52.6861Z" fill="#ECEFFA"/>
</svg>
