<svg width="96" height="96" viewBox="0 0 96 96" fill="none" xmlns="http://www.w3.org/2000/svg">
<path d="M48 4C42.4937 4.0069 37.1117 5.63716 32.5271 8.68685C27.9425 11.7365 24.3589 16.0703 22.2244 21.146C20.09 26.2218 19.4994 31.8142 20.5267 37.2238C21.554 42.6334 24.1535 47.62 28 51.56V88C28.0021 88.6819 28.1784 89.3519 28.5123 89.9464C28.8461 90.5409 29.3264 91.0403 29.9075 91.397C30.4887 91.7536 31.1513 91.9559 31.8326 91.9844C32.5138 92.0129 33.1911 91.8668 33.8 91.56L48 84.48L62.2 91.56C62.7573 91.8455 63.3738 91.9963 64 92C64.7489 92.0024 65.4834 91.7945 66.12 91.4C66.6965 91.0397 67.1716 90.5385 67.5005 89.9436C67.8295 89.3487 68.0014 88.6798 68 88V51.56C71.8465 47.62 74.446 42.6334 75.4733 37.2238C76.5006 31.8142 75.91 26.2218 73.7756 21.146C71.6411 16.0703 68.0575 11.7365 63.4729 8.68685C58.8883 5.63716 53.5063 4.0069 48 4ZM60 81.52L49.8 76.44C49.2417 76.1587 48.6252 76.0121 48 76.0121C47.3748 76.0121 46.7583 76.1587 46.2 76.44L36 81.52V57.28C38.5317 58.4755 41.2283 59.2845 44 59.68V64C44 65.0609 44.4214 66.0783 45.1716 66.8284C45.9217 67.5786 46.9391 68 48 68C49.0609 68 50.0783 67.5786 50.8284 66.8284C51.5786 66.0783 52 65.0609 52 64V59.68C54.7717 59.2845 57.4683 58.4755 60 57.28V81.52ZM48 52C44.0444 52 40.1776 50.827 36.8886 48.6294C33.5996 46.4318 31.0362 43.3082 29.5224 39.6537C28.0087 35.9991 27.6126 31.9778 28.3843 28.0982C29.156 24.2186 31.0608 20.6549 33.8579 17.8579C36.6549 15.0608 40.2186 13.156 44.0982 12.3843C47.9778 11.6126 51.9991 12.0087 55.6537 13.5224C59.3082 15.0362 62.4318 17.5996 64.6294 20.8886C66.827 24.1776 68 28.0444 68 32C68 37.3043 65.8929 42.3914 62.1421 46.1421C58.3914 49.8929 53.3043 52 48 52Z" fill="#ECEFFA"/>
</svg>
