<svg width="96" height="96" viewBox="0 0 96 96" fill="none" xmlns="http://www.w3.org/2000/svg">
<path d="M48.0001 4C42.4938 4.0069 37.1118 5.63716 32.5272 8.68685C27.9426 11.7365 24.3589 16.0703 22.2245 21.146C20.09 26.2218 19.4995 31.8142 20.5268 37.2238C21.5541 42.6334 24.1535 47.62 28.0001 51.56V88C28.0021 88.6819 28.1785 89.3519 28.5123 89.9464C28.8462 90.5409 29.3265 91.0403 29.9076 91.397C30.4887 91.7536 31.1514 91.9559 31.8326 91.9844C32.5139 92.0129 33.1911 91.8668 33.8001 91.56L48.0001 84.48L62.2001 91.56C62.7573 91.8455 63.3739 91.9963 64.0001 92C64.749 92.0024 65.4835 91.7945 66.1201 91.4C66.6965 91.0397 67.1716 90.5385 67.5006 89.9436C67.8295 89.3487 68.0014 88.6798 68.0001 88V51.56C71.8466 47.62 74.4461 42.6334 75.4733 37.2238C76.5006 31.8142 75.9101 26.2218 73.7756 21.146C71.6412 16.0703 68.0575 11.7365 63.4729 8.68685C58.8884 5.63716 53.5063 4.0069 48.0001 4ZM60.0001 81.52L49.8001 76.44C49.2417 76.1587 48.6253 76.0121 48.0001 76.0121C47.3749 76.0121 46.7584 76.1587 46.2001 76.44L36.0001 81.52V57.28C38.5317 58.4755 41.2284 59.2845 44.0001 59.68V64C44.0001 65.0609 44.4215 66.0783 45.1716 66.8284C45.9218 67.5786 46.9392 68 48.0001 68C49.0609 68 50.0783 67.5786 50.8285 66.8284C51.5786 66.0783 52.0001 65.0609 52.0001 64V59.68C54.7717 59.2845 57.4684 58.4755 60.0001 57.28V81.52ZM48.0001 52C44.0444 52 40.1776 50.827 36.8887 48.6294C33.5997 46.4318 31.0362 43.3082 29.5225 39.6537C28.0087 35.9991 27.6127 31.9778 28.3844 28.0982C29.1561 24.2186 31.0609 20.6549 33.8579 17.8579C36.655 15.0608 40.2186 13.156 44.0983 12.3843C47.9779 11.6126 51.9992 12.0087 55.6537 13.5224C59.3082 15.0362 62.4318 17.5996 64.6295 20.8886C66.8271 24.1776 68.0001 28.0444 68.0001 32C68.0001 37.3043 65.8929 42.3914 62.1422 46.1421C58.3915 49.8929 53.3044 52 48.0001 52Z" fill="#121518"/>
</svg>
