<svg width="96" height="96" viewBox="0 0 96 96" fill="none" xmlns="http://www.w3.org/2000/svg">
<path fill-rule="evenodd" clip-rule="evenodd" d="M55.5813 37.9775C54.0981 35.2213 52.6527 32.9293 51.1485 31.0532C51.6588 30.5298 52.0923 30.092 52.3525 29.8442C56.6691 25.7332 60.9232 24 68 24C80.8641 24 92 34.3935 92 48C92 61.6065 80.8641 72 68 72C56.5899 72 51.7428 66.0647 44.3523 49.6415C38.2428 36.0647 34.9233 32 28 32C18.9964 32 12 39.4723 12 48C12 56.5645 18.9398 64 28 64C32.1733 64 37.1611 62.3398 41.5173 59.9892C43.065 62.651 44.5973 64.8116 46.2271 66.5277C40.617 69.7235 34.0443 72 28 72C14.3935 72 4 60.8641 4 48C4 35.1674 14.4561 24 28 24C39.4101 24 44.2572 29.9353 51.6477 46.3585C57.7572 59.9353 61.0767 64 68 64C76.5645 64 84 57.0602 84 48C84 38.9398 76.5645 32 68 32C62.996 32 60.7118 32.9306 57.8697 35.6373C57.494 35.9951 56.5589 36.9615 55.5813 37.9775Z" fill="#ECEFFA"/>
</svg>
