<svg width="24" height="24" viewBox="0 0 24 24" fill="none" xmlns="http://www.w3.org/2000/svg">
<g clip-path="url(#clip0_527_13151)">
<path d="M23.9528 4.56987C23.0545 4.96475 22.1031 5.22553 21.129 5.34387C22.1558 4.72759 22.9245 3.76013 23.2928 2.62062C22.3216 3.18387 21.2645 3.58394 20.1638 3.80487C19.4235 3.01396 18.443 2.48946 17.3742 2.31274C16.3055 2.13602 15.2083 2.31697 14.2529 2.8275C13.2974 3.33803 12.5372 4.1496 12.0902 5.13631C11.6431 6.12301 11.5341 7.22968 11.7803 8.28462C7.6905 8.09337 4.065 6.12837 1.64025 3.15987C1.19886 3.91053 0.968011 4.76631 0.972005 5.63712C0.971403 6.44664 1.17071 7.24379 1.55223 7.95777C1.93376 8.67175 2.48568 9.28047 3.159 9.72987C2.37872 9.70628 1.61544 9.49617 0.933005 9.11712V9.17637C0.932766 10.3126 1.32541 11.414 2.0444 12.2939C2.76338 13.1738 3.76447 13.778 4.878 14.0041C4.4562 14.1168 4.0216 14.1745 3.585 14.1759C3.26925 14.1759 2.96775 14.1451 2.667 14.0896C2.9839 15.0674 3.59776 15.9221 4.42314 16.5347C5.24851 17.1472 6.24434 17.4873 7.272 17.5074C5.53081 18.871 3.38234 19.6107 1.17075 19.6081C0.779034 19.6097 0.387576 19.5876 -0.00149536 19.5421C2.25457 20.9877 4.87828 21.7551 7.55775 21.7531C16.608 21.7531 21.5535 14.2569 21.5535 7.76487C21.5535 7.55787 21.5535 7.34712 21.5378 7.13562C22.5052 6.44228 23.3389 5.57933 23.9985 4.58862L23.9528 4.56987Z" fill="white"/>
</g>
<defs>
<clipPath id="clip0_527_13151">
<rect width="24" height="24" fill="white"/>
</clipPath>
</defs>
</svg>
