<svg width="24" height="24" viewBox="0 0 24 24" fill="none" xmlns="http://www.w3.org/2000/svg">
<g clip-path="url(#clip0_527_13157)">
<path d="M12 0C8.73828 0 8.33178 0.01575 7.05528 0.06975C5.77353 0.13275 4.90653 0.3315 4.14153 0.6285C3.34087 0.930765 2.61577 1.40401 2.01678 2.01525C1.40383 2.61285 0.930323 3.33835 0.630026 4.14C0.333026 4.905 0.134276 5.772 0.0712759 7.05375C0.0135259 8.331 0.00152588 8.73675 0.00152588 11.9985C0.00152588 15.2603 0.0172759 15.6667 0.0712759 16.9432C0.134276 18.2212 0.333026 19.092 0.630026 19.857C0.932291 20.6577 1.40554 21.3828 2.01678 21.9818C2.61437 22.5947 3.33988 23.0682 4.14153 23.3685C4.90653 23.6618 5.77728 23.8642 7.05528 23.9272C8.33252 23.985 8.73828 23.997 12 23.997C15.2618 23.997 15.6683 23.9812 16.9448 23.9272C18.2228 23.8642 19.0935 23.661 19.8585 23.3685C20.6592 23.0662 21.3843 22.593 21.9833 21.9818C22.597 21.3848 23.0706 20.6591 23.37 19.857C23.6633 19.092 23.8658 18.2212 23.9288 16.9432C23.9865 15.666 23.9985 15.2603 23.9985 11.9985C23.9985 8.73675 23.9828 8.33025 23.9288 7.05375C23.8658 5.77575 23.6625 4.9005 23.37 4.14C23.0678 3.33935 22.5945 2.61425 21.9833 2.01525C21.3863 1.40152 20.6606 0.927885 19.8585 0.6285C19.0935 0.3315 18.2228 0.13275 16.9448 0.06975C15.6675 0.012 15.2618 0 12 0ZM12 2.16C15.2033 2.16 15.5858 2.17575 16.8518 2.22975C18.0195 2.2845 18.6555 2.4795 19.0778 2.6445C19.5998 2.83719 20.0723 3.14389 20.4608 3.54225C20.8585 3.92912 21.164 4.40051 21.3548 4.9215C21.5198 5.34375 21.7148 5.97975 21.7695 7.1475C21.8235 8.4135 21.8393 8.79675 21.8393 11.9992C21.8393 15.2017 21.8235 15.585 21.765 16.851C21.702 18.0188 21.507 18.6548 21.3428 19.077C21.1155 19.6403 20.862 20.034 20.4435 20.46C20.0537 20.8559 19.5815 21.1611 19.0605 21.354C18.6435 21.519 17.9985 21.714 16.8263 21.7687C15.5535 21.8227 15.1785 21.8385 11.967 21.8385C8.75553 21.8385 8.38128 21.8227 7.10703 21.7642C5.93928 21.7012 5.29503 21.5062 4.87278 21.342C4.30278 21.1147 3.91203 20.8612 3.49353 20.4427C3.07128 20.0205 2.80278 19.6185 2.59578 19.0598C2.42778 18.6428 2.23578 17.9977 2.17353 16.8255C2.13078 15.5677 2.11053 15.1778 2.11053 11.9813C2.11053 8.78625 2.13078 8.3955 2.17353 7.122C2.23578 5.94975 2.42778 5.30625 2.59578 4.88775C2.80278 4.317 3.07203 3.927 3.49353 3.50475C3.91128 3.087 4.30278 2.817 4.87278 2.6055C5.29503 2.44125 5.92353 2.24625 7.09578 2.18775C8.36853 2.142 8.74353 2.1255 11.9505 2.1255L12 2.16ZM12 5.84025C11.191 5.83995 10.3899 5.99908 9.64244 6.30853C8.89497 6.61798 8.21581 7.0717 7.64377 7.64374C7.07172 8.21578 6.61801 8.89495 6.30856 9.64242C5.9991 10.3899 5.83998 11.191 5.84028 12C5.83998 12.809 5.9991 13.6101 6.30856 14.3576C6.61801 15.1051 7.07172 15.7842 7.64377 16.3563C8.21581 16.9283 8.89497 17.382 9.64244 17.6915C10.3899 18.0009 11.191 18.16 12 18.1597C12.809 18.16 13.6101 18.0009 14.3576 17.6915C15.1051 17.382 15.7842 16.9283 16.3563 16.3563C16.9283 15.7842 17.382 15.1051 17.6915 14.3576C18.0009 13.6101 18.1601 12.809 18.1598 12C18.1601 11.191 18.0009 10.3899 17.6915 9.64242C17.382 8.89495 16.9283 8.21578 16.3563 7.64374C15.7842 7.0717 15.1051 6.61798 14.3576 6.30853C13.6101 5.99908 12.809 5.83995 12 5.84025V5.84025ZM12 15.9998C9.78903 15.9998 8.00028 14.211 8.00028 12C8.00028 9.789 9.78903 8.00025 12 8.00025C14.211 8.00025 15.9998 9.789 15.9998 12C15.9998 14.211 14.211 15.9998 12 15.9998ZM19.848 5.59425C19.8476 5.9765 19.6955 6.34296 19.4251 6.61311C19.1546 6.88326 18.788 7.035 18.4058 7.035C18.2168 7.035 18.0296 6.99777 17.855 6.92544C17.6804 6.85311 17.5217 6.7471 17.3881 6.61345C17.2544 6.47981 17.1484 6.32115 17.0761 6.14653C17.0038 5.97191 16.9665 5.78475 16.9665 5.59575C16.9665 5.40674 17.0038 5.21959 17.0761 5.04497C17.1484 4.87036 17.2544 4.71169 17.3881 4.57805C17.5217 4.4444 17.6804 4.33839 17.855 4.26606C18.0296 4.19373 18.2168 4.1565 18.4058 4.1565C19.1985 4.1565 19.848 4.8015 19.848 5.59425V5.59425Z" fill="white"/>
</g>
<defs>
<clipPath id="clip0_527_13157">
<rect width="24" height="24" fill="white"/>
</clipPath>
</defs>
</svg>
