<svg width="24" height="24" viewBox="0 0 24 24" fill="none" xmlns="http://www.w3.org/2000/svg">
<path d="M12.531 0.02025C13.8398 0 15.141 0.012 16.4408 0C16.5195 1.53075 17.07 3.09 18.1905 4.17225C19.3088 5.2815 20.8905 5.78925 22.4295 5.961V9.98775C20.9873 9.9405 19.5383 9.6405 18.2295 9.0195C17.6595 8.7615 17.1285 8.42925 16.6088 8.0895C16.602 11.0115 16.6208 13.9297 16.59 16.8397C16.512 18.2377 16.0508 19.629 15.2378 20.781C13.9298 22.6988 11.6595 23.949 9.32777 23.988C7.89752 24.0697 6.46877 23.6797 5.25002 22.9612C3.23027 21.7702 1.80902 19.59 1.60202 17.25C1.57595 16.7544 1.57194 16.2579 1.59002 15.762C1.77002 13.8593 2.71127 12.039 4.17227 10.8008C5.82827 9.3585 8.14802 8.6715 10.32 9.078C10.3403 10.5593 10.281 12.039 10.281 13.5203C9.28877 13.1993 8.12927 13.2892 7.26227 13.8915C6.62795 14.3094 6.1486 14.9242 5.89802 15.6412C5.69102 16.1482 5.75027 16.7115 5.76227 17.25C6.00002 18.891 7.57802 20.2702 9.26252 20.121C10.3793 20.109 11.4495 19.461 12.0315 18.5123C12.2198 18.18 12.4305 17.8403 12.4418 17.4495C12.54 15.6608 12.501 13.8795 12.513 12.0908C12.5213 8.0595 12.501 4.0395 12.5318 0.021L12.531 0.02025Z" fill="white"/>
</svg>
