<svg width="240" height="240" viewBox="0 0 240 240" fill="none" xmlns="http://www.w3.org/2000/svg">
<g opacity="0.39">
<path opacity="0.39" d="M191.568 134.112H194.448" stroke="#9284CE" stroke-width="2.232" stroke-miterlimit="10" stroke-linecap="round" stroke-linejoin="round"/>
<path opacity="0.39" d="M193.008 132.672V135.552" stroke="#9284CE" stroke-width="2.232" stroke-miterlimit="10" stroke-linecap="round" stroke-linejoin="round"/>
</g>
<g opacity="0.4">
<path opacity="0.4" d="M112.584 63H115.464" stroke="#9284CE" stroke-width="2.232" stroke-miterlimit="10" stroke-linecap="round" stroke-linejoin="round"/>
<path opacity="0.4" d="M114.024 61.5601V64.4401" stroke="#9284CE" stroke-width="2.232" stroke-miterlimit="10" stroke-linecap="round" stroke-linejoin="round"/>
</g>
<path d="M158.424 83.832C159.577 83.832 160.512 82.8972 160.512 81.744C160.512 80.591 159.577 79.656 158.424 79.656C157.271 79.656 156.336 80.591 156.336 81.744C156.336 82.8972 157.271 83.832 158.424 83.832Z" stroke="#FF6F6C" stroke-width="1.35319" stroke-miterlimit="10" stroke-linecap="round" stroke-linejoin="round"/>
<path d="M27.48 109.512C27.9838 109.512 28.392 109.104 28.392 108.6C28.392 108.096 27.9838 107.688 27.48 107.688C26.9765 107.688 26.568 108.096 26.568 108.6C26.568 109.104 26.9765 109.512 27.48 109.512Z" stroke="#FF6F6C" stroke-width="1.35319" stroke-miterlimit="10" stroke-linecap="round" stroke-linejoin="round"/>
<path d="M184.608 82.0799C185.576 82.0799 186.36 81.2956 186.36 80.3279C186.36 79.3605 185.576 78.5759 184.608 78.5759C183.641 78.5759 182.856 79.3605 182.856 80.3279C182.856 81.2956 183.641 82.0799 184.608 82.0799Z" stroke="#FFA65C" stroke-width="2.232" stroke-miterlimit="10" stroke-linecap="round" stroke-linejoin="round"/>
<path opacity="0.45" d="M40.2 157.8C41.1677 157.8 41.952 157.016 41.952 156.048C41.952 155.08 41.1677 154.296 40.2 154.296C39.2326 154.296 38.448 155.08 38.448 156.048C38.448 157.016 39.2326 157.8 40.2 157.8Z" stroke="#FFA65C" stroke-width="1.488" stroke-miterlimit="10" stroke-linecap="round" stroke-linejoin="round"/>
<path d="M95.088 54.0239H97.296" stroke="#FF6F6C" stroke-width="1.35319" stroke-miterlimit="10" stroke-linecap="round" stroke-linejoin="round"/>
<path d="M96.1919 52.9199V55.1279" stroke="#FF6F6C" stroke-width="1.35319" stroke-miterlimit="10" stroke-linecap="round" stroke-linejoin="round"/>
<g opacity="0.24">
<path opacity="0.24" d="M64.6802 126H69.9842" stroke="#34323A" stroke-width="3.46931" stroke-miterlimit="10" stroke-linecap="round" stroke-linejoin="round"/>
<path opacity="0.24" d="M67.3441 123.336V128.664" stroke="#34323A" stroke-width="3.46931" stroke-miterlimit="10" stroke-linecap="round" stroke-linejoin="round"/>
</g>
<path d="M184.608 114.048V114.888" stroke="#FFA64D" stroke-width="1.116" stroke-miterlimit="10" stroke-linecap="round" stroke-linejoin="round"/>
<path d="M184.608 117.288V118.128" stroke="#FFA64D" stroke-width="1.116" stroke-miterlimit="10" stroke-linecap="round" stroke-linejoin="round"/>
<path d="M186.648 116.088H185.832" stroke="#FFA64D" stroke-width="1.116" stroke-miterlimit="10" stroke-linecap="round" stroke-linejoin="round"/>
<path d="M183.408 116.088H182.568" stroke="#FFA64D" stroke-width="1.116" stroke-miterlimit="10" stroke-linecap="round" stroke-linejoin="round"/>
<path d="M186.072 114.648L185.472 115.248" stroke="#FFA64D" stroke-width="1.116" stroke-miterlimit="10" stroke-linecap="round" stroke-linejoin="round"/>
<path d="M183.768 116.952L183.168 117.528" stroke="#FFA64D" stroke-width="1.116" stroke-miterlimit="10" stroke-linecap="round" stroke-linejoin="round"/>
<path d="M186.072 117.528L185.472 116.952" stroke="#FFA64D" stroke-width="1.116" stroke-miterlimit="10" stroke-linecap="round" stroke-linejoin="round"/>
<path d="M183.768 115.248L183.168 114.648" stroke="#FFA64D" stroke-width="1.116" stroke-miterlimit="10" stroke-linecap="round" stroke-linejoin="round"/>
<g opacity="0.57">
<g opacity="0.57">
<g opacity="0.57">
<path opacity="0.57" d="M146.856 54.0239V56.0879" stroke="#E24D59" stroke-width="1.488" stroke-miterlimit="10" stroke-linecap="square"/>
<path opacity="0.57" d="M146.856 61.9678V64.0078" stroke="#E24D59" stroke-width="1.488" stroke-miterlimit="10" stroke-linecap="square"/>
</g>
<g opacity="0.57">
<path opacity="0.57" d="M151.848 59.0156H149.808" stroke="#E24D59" stroke-width="1.488" stroke-miterlimit="10" stroke-linecap="square"/>
<path opacity="0.57" d="M143.928 59.0156H141.864" stroke="#E24D59" stroke-width="1.488" stroke-miterlimit="10" stroke-linecap="square"/>
</g>
</g>
<g opacity="0.57">
<g opacity="0.57">
<path opacity="0.57" d="M150.384 55.4875L148.944 56.9515" stroke="#E24D59" stroke-width="1.488" stroke-miterlimit="10" stroke-linecap="square"/>
<path opacity="0.57" d="M144.768 61.1038L143.328 62.5438" stroke="#E24D59" stroke-width="1.488" stroke-miterlimit="10" stroke-linecap="square"/>
</g>
<g opacity="0.57">
<path opacity="0.57" d="M150.384 62.5438L148.944 61.1038" stroke="#E24D59" stroke-width="1.488" stroke-miterlimit="10" stroke-linecap="square"/>
<path opacity="0.57" d="M144.768 56.9515L143.328 55.4875" stroke="#E24D59" stroke-width="1.488" stroke-miterlimit="10" stroke-linecap="square"/>
</g>
</g>
</g>
<path d="M45.4559 107.592V109.08" stroke="#FF6F6C" stroke-width="1.35319" stroke-miterlimit="10" stroke-linecap="round" stroke-linejoin="round"/>
<path d="M45.4559 113.304V114.792" stroke="#FF6F6C" stroke-width="1.35319" stroke-miterlimit="10" stroke-linecap="round" stroke-linejoin="round"/>
<path d="M49.0562 111.192H47.5922" stroke="#FF6F6C" stroke-width="1.35319" stroke-miterlimit="10" stroke-linecap="round" stroke-linejoin="round"/>
<path d="M43.344 111.192H41.856" stroke="#FF6F6C" stroke-width="1.35319" stroke-miterlimit="10" stroke-linecap="round" stroke-linejoin="round"/>
<path d="M48.0003 108.648L46.9683 109.704" stroke="#FF6F6C" stroke-width="1.35319" stroke-miterlimit="10" stroke-linecap="round" stroke-linejoin="round"/>
<path d="M43.9682 112.704L42.9122 113.736" stroke="#FF6F6C" stroke-width="1.35319" stroke-miterlimit="10" stroke-linecap="round" stroke-linejoin="round"/>
<path d="M48.0003 113.736L46.9683 112.704" stroke="#FF6F6C" stroke-width="1.35319" stroke-miterlimit="10" stroke-linecap="round" stroke-linejoin="round"/>
<path d="M43.9682 109.704L42.9122 108.648" stroke="#FF6F6C" stroke-width="1.35319" stroke-miterlimit="10" stroke-linecap="round" stroke-linejoin="round"/>
<path d="M73.248 66.9841V68.2561" stroke="#AE8DCE" stroke-width="1.15499" stroke-miterlimit="10" stroke-linecap="round" stroke-linejoin="round"/>
<path d="M73.248 71.8799V73.1279" stroke="#AE8DCE" stroke-width="1.15499" stroke-miterlimit="10" stroke-linecap="round" stroke-linejoin="round"/>
<path d="M76.3201 70.0557H75.0481" stroke="#AE8DCE" stroke-width="1.15499" stroke-miterlimit="10" stroke-linecap="round" stroke-linejoin="round"/>
<path d="M71.424 70.0557H70.176" stroke="#AE8DCE" stroke-width="1.15499" stroke-miterlimit="10" stroke-linecap="round" stroke-linejoin="round"/>
<path d="M75.4083 67.8958L74.5203 68.7838" stroke="#AE8DCE" stroke-width="1.15499" stroke-miterlimit="10" stroke-linecap="round" stroke-linejoin="round"/>
<path d="M71.9522 71.3521L71.0642 72.2401" stroke="#AE8DCE" stroke-width="1.15499" stroke-miterlimit="10" stroke-linecap="round" stroke-linejoin="round"/>
<path d="M75.4083 72.2401L74.5203 71.3521" stroke="#AE8DCE" stroke-width="1.15499" stroke-miterlimit="10" stroke-linecap="round" stroke-linejoin="round"/>
<path d="M71.9522 68.7838L71.0642 67.8958" stroke="#AE8DCE" stroke-width="1.15499" stroke-miterlimit="10" stroke-linecap="round" stroke-linejoin="round"/>
<path d="M37.3199 178.896H201.12" stroke="#34323A" stroke-width="4.464" stroke-miterlimit="10" stroke-linecap="round" stroke-linejoin="round"/>
<path d="M54.024 150.48C50.496 152.64 48.936 156.504 54.024 157.92C64.776 157.704 69.984 157.68 69.984 157.68V153.336C69.984 153.336 57.552 148.32 54.024 150.48Z" fill="#DBA44A"/>
<path d="M54.024 150.48C50.496 152.64 48.936 156.504 54.024 157.92C64.776 157.704 69.984 157.68 69.984 157.68V153.336C69.984 153.336 57.552 148.32 54.024 150.48Z" stroke="#34323A" stroke-width="2.976" stroke-miterlimit="10" stroke-linecap="round" stroke-linejoin="round"/>
<path d="M54.024 150.48C50.496 152.64 48.936 156.504 54.024 157.92C64.776 157.704 69.984 157.68 69.984 157.68V153.336C69.984 153.336 57.552 148.32 54.024 150.48Z" fill="#DBA44A"/>
<path d="M54.4079 152.184C57.5759 150.264 67.9199 154.104 70.0079 154.896V153.336C70.0079 153.336 57.5759 148.32 54.0479 150.48C51.5519 152.016 50.0399 154.392 51.1919 156.168C51.3839 154.752 52.6559 153.24 54.4079 152.184Z" fill="#FECB5B"/>
<path d="M54.024 150.48C50.496 152.64 48.936 156.504 54.024 157.92C64.776 157.704 69.984 157.68 69.984 157.68V153.336C69.984 153.336 57.552 148.32 54.024 150.48Z" stroke="#34323A" stroke-width="2.976" stroke-miterlimit="10" stroke-linecap="round" stroke-linejoin="round"/>
<path d="M95.352 150.48C98.88 152.64 100.44 156.504 95.352 157.92C84.6 157.704 79.392 157.68 79.392 157.68V153.336C79.392 153.336 91.848 148.32 95.352 150.48Z" fill="#DBA44A"/>
<path d="M95.352 151.944C96.96 152.928 98.136 154.248 98.496 155.544C99.024 153.864 97.584 151.824 95.352 150.456C91.824 148.296 79.392 153.312 79.392 153.312V154.8C79.392 154.824 91.848 149.808 95.352 151.944Z" fill="#FECB5B"/>
<path d="M95.352 150.48C98.88 152.64 100.44 156.504 95.352 157.92C84.6 157.704 79.392 157.68 79.392 157.68V153.336C79.392 153.336 91.848 148.32 95.352 150.48Z" stroke="#34323A" stroke-width="2.976" stroke-miterlimit="10" stroke-linecap="round" stroke-linejoin="round"/>
<path d="M78.2397 159.24C75.8637 159.768 73.3917 159.768 71.0157 159.24C69.3837 158.784 68.1357 156.912 68.1357 155.424C68.1357 153.936 69.3837 152.04 71.0157 151.608C73.3917 151.08 75.8637 151.08 78.2397 151.608C79.8717 152.064 81.1197 153.936 81.1197 155.424C81.0957 156.888 79.8477 158.784 78.2397 159.24Z" fill="#DBA44A"/>
<path d="M70.9919 153.456C73.3679 152.928 75.8399 152.928 78.2159 153.456C79.5119 153.816 80.5679 155.088 80.9519 156.336C81.0479 156.024 81.0959 155.688 81.0959 155.4C81.0959 153.912 79.8479 152.016 78.2159 151.584C75.8399 151.056 73.3679 151.056 70.9919 151.584C69.3599 152.04 68.1119 153.912 68.1119 155.4C68.1119 155.712 68.1599 156.024 68.2559 156.336C68.6639 155.088 69.7199 153.816 70.9919 153.456Z" fill="#FECB5B"/>
<path d="M78.2397 159.24C75.8637 159.768 73.3917 159.768 71.0157 159.24C69.3837 158.784 68.1357 156.912 68.1357 155.424C68.1357 153.936 69.3837 152.04 71.0157 151.608C73.3917 151.08 75.8637 151.08 78.2397 151.608C79.8717 152.064 81.1197 153.936 81.1197 155.424C81.0957 156.888 79.8477 158.784 78.2397 159.24Z" stroke="#34323A" stroke-width="2.976" stroke-miterlimit="10" stroke-linecap="round" stroke-linejoin="round"/>
<path d="M91.752 158.328H48.96V178.776H91.752V158.328Z" fill="#FECB5B"/>
<path d="M91.752 162.912L75.864 178.776H81.504L91.752 168.528V162.912Z" fill="#EF4C4E"/>
<path d="M90.48 158.328H85.296L64.824 178.776H70.464L90.696 158.544L90.48 158.328Z" fill="#EF4C4E"/>
<path d="M74.2561 158.328L53.7841 178.776H59.4241L79.8721 158.328H74.2561Z" fill="#EF4C4E"/>
<path d="M68.832 158.328H63.216L48.96 172.56V176.856L49.632 177.528L68.832 158.328Z" fill="#EF4C4E"/>
<path d="M52.176 158.328L48.96 161.52V167.16L57.792 158.328H52.176Z" fill="#EF4C4E"/>
<path opacity="0.46" d="M91.752 158.328H48.96V161.28H91.752V158.328Z" fill="#F4E598"/>
<path opacity="0.2" d="M52.68 158.328H48.96V178.776H52.68V158.328Z" fill="#4C1C1F"/>
<path opacity="0.2" d="M87.5281 158.328H83.8081V178.776H87.5281V158.328Z" fill="#4C1C1F"/>
<path d="M91.752 158.328H48.96V178.776H91.752V158.328Z" stroke="#34323A" stroke-width="4.464" stroke-miterlimit="10" stroke-linecap="round" stroke-linejoin="round"/>
<path d="M143.88 99.2881C143.88 99.2881 144.504 101.712 141.024 103.848C148.584 105.408 153.288 109.056 154.056 109.92C155.544 109.92 155.544 109.92 155.544 109.92C155.544 109.92 153.528 100.248 143.88 99.2881Z" fill="white"/>
<path d="M143.88 99.2881C143.88 99.2881 144.504 101.712 141.024 103.848C148.584 105.408 153.288 109.056 154.056 109.92C155.544 109.92 155.544 109.92 155.544 109.92C155.544 109.92 153.528 100.248 143.88 99.2881Z" stroke="#34323A" stroke-width="2.232" stroke-miterlimit="10" stroke-linecap="round" stroke-linejoin="round"/>
<path d="M170.256 100.824C170.256 100.824 169.296 103.128 172.44 105.744C164.736 106.224 159.552 109.152 158.688 109.92C157.2 109.704 157.2 109.704 157.2 109.704C157.2 109.704 160.56 100.416 170.256 100.824Z" fill="white"/>
<path d="M170.256 100.824C170.256 100.824 169.296 103.128 172.44 105.744C164.736 106.224 159.552 109.152 158.688 109.92C157.2 109.704 157.2 109.704 157.2 109.704C157.2 109.704 160.56 100.416 170.256 100.824Z" stroke="#34323A" stroke-width="2.232" stroke-miterlimit="10" stroke-linecap="round" stroke-linejoin="round"/>
<path d="M157.2 108.624C157.2 108.624 159.408 103.704 164.208 103.704C168.792 103.896 171.936 111.24 168.24 111.84C164.52 112.44 158.184 112.632 158.184 112.632C158.184 112.632 159.096 110.52 157.2 108.624Z" fill="#EEF2FA"/>
<path d="M157.2 108.624C157.2 108.624 159.408 103.704 164.208 103.704C168.792 103.896 171.936 111.24 168.24 111.84C164.52 112.44 158.184 112.632 158.184 112.632C158.184 112.632 159.096 110.52 157.2 108.624Z" stroke="#34323A" stroke-width="2.232" stroke-miterlimit="10" stroke-linecap="round" stroke-linejoin="round"/>
<path d="M154.68 108.624C154.68 108.624 152.472 103.704 147.672 103.704C143.088 103.896 139.944 111.24 143.64 111.84C147.36 112.44 153.696 112.632 153.696 112.632C153.696 112.632 152.784 110.52 154.68 108.624Z" fill="#EEF2FA"/>
<path d="M154.68 108.624C154.68 108.624 152.472 103.704 147.672 103.704C143.088 103.896 139.944 111.24 143.64 111.84C147.36 112.44 153.696 112.632 153.696 112.632C153.696 112.632 152.784 110.52 154.68 108.624Z" stroke="#34323A" stroke-width="2.232" stroke-miterlimit="10" stroke-linecap="round" stroke-linejoin="round"/>
<path d="M153.24 109.56C153.24 109.56 153.24 108.384 150.768 107.928" stroke="#34323A" stroke-width="0.744" stroke-miterlimit="10" stroke-linecap="round" stroke-linejoin="round"/>
<path d="M153.48 110.736C153.48 110.736 150.816 108.696 146.568 108.816" stroke="#34323A" stroke-width="0.744" stroke-miterlimit="10" stroke-linecap="round" stroke-linejoin="round"/>
<path d="M127.968 178.776H88.68C87.888 178.776 87.24 178.128 87.24 177.336V92.3279H129.408V177.336C129.408 178.152 128.76 178.776 127.968 178.776Z" fill="#6FBB57"/>
<path d="M129.408 92.3279H87.24V96.3359H129.408V92.3279Z" fill="#579B3E"/>
<path d="M129.408 132.504H87.24V136.512H129.408V132.504Z" fill="#579B3E"/>
<path d="M114.072 92.3279H108.264V178.776H114.072V92.3279Z" fill="#579B3E"/>
<path d="M124.296 178.776H118.488V149.28C118.488 147.576 119.856 146.208 121.56 146.208H124.296V178.776Z" fill="#579B3E"/>
<path d="M90.288 92.3279H87.384V178.776H90.288V92.3279Z" fill="#579B3E"/>
<path d="M127.968 178.776H88.68C87.888 178.776 87.24 178.128 87.24 177.336V92.3279H129.408V177.336C129.408 178.152 128.76 178.776 127.968 178.776Z" stroke="#34323A" stroke-width="4.464" stroke-miterlimit="10" stroke-linecap="round" stroke-linejoin="round"/>
<path d="M130.896 81.7681H85.7759C84.9839 81.7681 84.3359 82.4161 84.3359 83.2081V90.8881C84.3359 91.6801 84.9839 92.3281 85.7759 92.3281H130.896C131.688 92.3281 132.336 91.6801 132.336 90.8881V83.2081C132.336 82.4161 131.688 81.7681 130.896 81.7681Z" fill="#6FBB57"/>
<path d="M109.584 79.728C109.584 79.728 113.592 72.168 120.864 71.52C126.216 71.04 127.416 84.048 125.976 85.512C123.672 87.816 119.592 86.52 111.936 84.888C109.584 79.728 109.584 79.728 109.584 79.728Z" fill="#6FBB57"/>
<path d="M105.96 79.728C105.96 79.728 101.952 72.168 94.68 71.52C89.328 71.04 88.128 84.048 89.568 85.512C91.872 87.816 95.952 86.52 103.608 84.888C105.96 79.728 105.96 79.728 105.96 79.728Z" fill="#6FBB57"/>
<path d="M115.68 81.7681H104.808V92.3281H115.68V81.7681Z" fill="#6FBB57"/>
<path d="M130.896 89.448H85.7759C84.9839 89.448 84.3359 90.096 84.3359 90.888C84.3359 91.68 84.9839 92.328 85.7759 92.328H130.896C131.688 92.328 132.336 91.68 132.336 90.888C132.336 90.096 131.688 89.448 130.896 89.448Z" fill="#579B3E"/>
<path d="M87.24 81.7681H84.84V92.3281H87.24V81.7681Z" fill="#579B3E"/>
<path opacity="0.42" d="M130.896 81.7681H85.7759C84.9839 81.7681 84.3359 82.4161 84.3359 83.2081C84.3359 84.0001 84.9839 84.6481 85.7759 84.6481H130.896C131.688 84.6481 132.336 84.0001 132.336 83.2081C132.336 82.4161 131.688 81.7681 130.896 81.7681Z" fill="white"/>
<path d="M111.936 92.3279H104.736V178.776H111.936V92.3279Z" fill="#FECB5B"/>
<path d="M111.936 92.3279H104.736V178.776H111.936V92.3279Z" stroke="#34323A" stroke-width="2.976" stroke-miterlimit="10" stroke-linecap="round" stroke-linejoin="round"/>
<path d="M130.896 81.7681H85.7759C84.9839 81.7681 84.3359 82.4161 84.3359 83.2081V90.8881C84.3359 91.6801 84.9839 92.3281 85.7759 92.3281H130.896C131.688 92.3281 132.336 91.6801 132.336 90.8881V83.2081C132.336 82.4161 131.688 81.7681 130.896 81.7681Z" stroke="#34323A" stroke-width="4.464" stroke-miterlimit="10" stroke-linecap="round" stroke-linejoin="round"/>
<path d="M113.76 81.7681H102.888V92.3281H113.76V81.7681Z" fill="#FECB5B"/>
<path opacity="0.63" d="M108.336 88.7761C105.336 88.7761 102.888 86.3521 102.888 83.3281V81.3601C102.888 78.3601 105.312 75.9121 108.336 75.9121C111.336 75.9121 113.784 78.3361 113.784 81.3601V83.3521C113.76 86.3521 111.336 88.7761 108.336 88.7761Z" fill="#EA952F"/>
<path d="M113.76 81.7681H102.888V92.3281H113.76V81.7681Z" stroke="#34323A" stroke-width="2.976" stroke-miterlimit="10" stroke-linecap="round" stroke-linejoin="round"/>
<path d="M109.584 77.5681C109.584 77.5681 113.592 70.0081 120.864 69.3601C126.216 68.8801 127.416 81.8881 125.976 83.3521C123.672 85.6561 119.592 84.3601 111.936 82.7281C109.584 77.5681 109.584 77.5681 109.584 77.5681Z" fill="#F7B45C"/>
<path opacity="0.63" d="M115.44 81.1921V79.2001C115.44 76.8961 114.336 74.8561 112.656 73.5601C110.64 75.5761 109.584 77.5681 109.584 77.5681C109.584 77.5681 109.584 77.5681 111.936 82.7281C113.064 82.9681 114.12 83.2081 115.104 83.4241C115.32 82.7041 115.44 81.9601 115.44 81.1921Z" fill="#EA952F"/>
<path d="M121.296 70.9922C123.576 70.7762 125.112 73.0322 126 75.7922C125.232 72.3602 123.576 69.1202 120.864 69.3602C113.592 70.0082 109.584 77.5682 109.584 77.5682C109.584 77.5682 109.584 77.5682 110.184 78.9122C111 77.5202 114.888 71.5682 121.296 70.9922Z" fill="#FECB5B"/>
<path d="M109.584 77.5681C109.584 77.5681 113.592 70.0081 120.864 69.3601C126.216 68.8801 127.416 81.8881 125.976 83.3521C123.672 85.6561 119.592 84.3601 111.936 82.7281C109.584 77.5681 109.584 77.5681 109.584 77.5681Z" stroke="#34323A" stroke-width="2.976" stroke-miterlimit="10" stroke-linecap="round" stroke-linejoin="round"/>
<path d="M112.68 78.456C112.68 78.456 115.488 75.96 118.704 75.48" stroke="#34323A" stroke-width="0.744" stroke-miterlimit="10" stroke-linecap="round" stroke-linejoin="round"/>
<path d="M113.064 78.336C113.064 78.336 116.616 77.088 119.76 77.808" stroke="#34323A" stroke-width="0.744" stroke-miterlimit="10" stroke-linecap="round" stroke-linejoin="round"/>
<path d="M105.96 77.5681C105.96 77.5681 101.952 70.0081 94.68 69.3601C89.328 68.8801 88.128 81.8881 89.568 83.3521C91.872 85.6561 95.952 84.3601 103.608 82.7281C105.96 77.5681 105.96 77.5681 105.96 77.5681Z" fill="#F7B45C"/>
<path opacity="0.63" d="M101.208 79.2001V81.1921C101.208 81.8881 101.304 82.5601 101.496 83.2081C102.168 83.0641 102.864 82.8961 103.608 82.7521C105.96 77.5921 105.96 77.5921 105.96 77.5921C105.96 77.5921 105.072 75.9361 103.392 74.1121C102.048 75.3601 101.208 77.1841 101.208 79.2001Z" fill="#EA952F"/>
<path d="M94.392 71.2323C100.488 71.7843 104.304 77.1843 105.36 78.9123C105.96 77.5683 105.96 77.5683 105.96 77.5683C105.96 77.5683 101.952 70.0083 94.68 69.3603C91.368 69.0723 89.64 73.9683 89.16 78.0723C89.88 74.4963 91.56 70.9683 94.392 71.2323Z" fill="#FECB5B"/>
<path d="M105.96 77.5681C105.96 77.5681 101.952 70.0081 94.68 69.3601C89.328 68.8801 88.128 81.8881 89.568 83.3521C91.872 85.6561 95.952 84.3601 103.608 82.7281C105.96 77.5681 105.96 77.5681 105.96 77.5681Z" stroke="#34323A" stroke-width="2.976" stroke-miterlimit="10" stroke-linecap="round" stroke-linejoin="round"/>
<path d="M97.176 78.288C97.176 78.288 100.92 77.856 103.824 79.296" stroke="#34323A" stroke-width="0.744" stroke-miterlimit="10" stroke-linecap="round" stroke-linejoin="round"/>
<path d="M97.968 75.6479C97.968 75.6479 101.616 76.5119 103.896 78.8399" stroke="#34323A" stroke-width="0.744" stroke-miterlimit="10" stroke-linecap="round" stroke-linejoin="round"/>
<path d="M129.408 127.32H87.24V134.52H129.408V127.32Z" fill="#FFCC66"/>
<path opacity="0.6" d="M90.264 127.32H87.24V134.52H90.264V127.32Z" fill="#F7B45C"/>
<path d="M129.408 127.32H87.24V134.52H129.408V127.32Z" stroke="#34323A" stroke-width="2.976" stroke-miterlimit="10" stroke-linecap="round" stroke-linejoin="round"/>
<path d="M108.336 86.616C105.336 86.616 102.888 84.192 102.888 81.168V79.2C102.888 76.2 105.312 73.752 108.336 73.752C111.336 73.752 113.784 76.176 113.784 79.2V81.192C113.76 84.192 111.336 86.616 108.336 86.616Z" fill="#F7B45C"/>
<path d="M108.336 73.752C105.336 73.752 102.888 76.176 102.888 79.2V80.784C102.888 77.784 105.312 75.336 108.336 75.336C111.336 75.336 113.784 77.76 113.784 80.784V79.2C113.76 76.2 111.336 73.752 108.336 73.752Z" fill="#FECB5B"/>
<path d="M108.336 86.616C105.336 86.616 102.888 84.192 102.888 81.168V79.2C102.888 76.2 105.312 73.752 108.336 73.752C111.336 73.752 113.784 76.176 113.784 79.2V81.192C113.76 84.192 111.336 86.616 108.336 86.616Z" stroke="#34323A" stroke-width="2.976" stroke-miterlimit="10" stroke-linecap="round" stroke-linejoin="round"/>
<path d="M106.92 166.536V178.776" stroke="#34323A" stroke-width="0.744" stroke-miterlimit="10" stroke-linecap="round" stroke-linejoin="round"/>
<path d="M109.392 93.0959V97.5119" stroke="#34323A" stroke-width="0.744" stroke-miterlimit="10" stroke-linecap="round" stroke-linejoin="round"/>
<path d="M108.336 93.0959V95.304" stroke="#34323A" stroke-width="0.744" stroke-miterlimit="10" stroke-linecap="round" stroke-linejoin="round"/>
<path d="M109.728 172.848V178.776" stroke="#34323A" stroke-width="0.744" stroke-miterlimit="10" stroke-linecap="round" stroke-linejoin="round"/>
<path d="M87.24 129.816H90.288" stroke="#34323A" stroke-width="0.744" stroke-miterlimit="10" stroke-linecap="round" stroke-linejoin="round"/>
<path d="M124.848 131.952H130.2" stroke="#34323A" stroke-width="0.744" stroke-miterlimit="10" stroke-linecap="round" stroke-linejoin="round"/>
<path d="M121.392 130.056H129.216" stroke="#34323A" stroke-width="0.744" stroke-miterlimit="10" stroke-linecap="round" stroke-linejoin="round"/>
<path d="M176.808 178.776H122.832C122.04 178.776 121.392 178.128 121.392 177.336V148.872C121.392 148.08 122.04 147.432 122.832 147.432H176.808C177.6 147.432 178.248 148.08 178.248 148.872V177.36C178.248 178.152 177.6 178.776 176.808 178.776Z" fill="#6B9EC0"/>
<path d="M176.808 147.192H125.4H122.856H121.416V148.632V149.208V178.536H125.4V152.616C125.4 151.536 126.288 150.648 127.368 150.648H176.808C177.6 150.648 178.248 150 178.248 149.208V148.632C178.248 147.84 177.6 147.192 176.808 147.192Z" fill="#5187A5"/>
<g opacity="0.62">
<g opacity="0.62">
<path opacity="0.62" d="M125.4 150.888C126.54 150.888 127.464 149.964 127.464 148.824C127.464 147.684 126.54 146.76 125.4 146.76C124.26 146.76 123.336 147.684 123.336 148.824C123.336 149.964 124.26 150.888 125.4 150.888Z" fill="white"/>
<path opacity="0.62" d="M133.536 150.888C134.676 150.888 135.6 149.964 135.6 148.824C135.6 147.684 134.676 146.76 133.536 146.76C132.396 146.76 131.472 147.684 131.472 148.824C131.472 149.964 132.396 150.888 133.536 150.888Z" fill="white"/>
<path opacity="0.62" d="M141.672 150.888C142.812 150.888 143.736 149.964 143.736 148.824C143.736 147.684 142.812 146.76 141.672 146.76C140.532 146.76 139.608 147.684 139.608 148.824C139.608 149.964 140.532 150.888 141.672 150.888Z" fill="white"/>
<path opacity="0.62" d="M149.832 150.888C150.972 150.888 151.896 149.964 151.896 148.824C151.896 147.684 150.972 146.76 149.832 146.76C148.692 146.76 147.768 147.684 147.768 148.824C147.768 149.964 148.692 150.888 149.832 150.888Z" fill="white"/>
<path opacity="0.62" d="M157.968 150.888C159.108 150.888 160.032 149.964 160.032 148.824C160.032 147.684 159.108 146.76 157.968 146.76C156.828 146.76 155.904 147.684 155.904 148.824C155.904 149.964 156.828 150.888 157.968 150.888Z" fill="white"/>
<path opacity="0.62" d="M166.128 150.888C167.268 150.888 168.192 149.964 168.192 148.824C168.192 147.684 167.268 146.76 166.128 146.76C164.988 146.76 164.064 147.684 164.064 148.824C164.064 149.964 164.988 150.888 166.128 150.888Z" fill="white"/>
<path opacity="0.62" d="M174.264 150.888C175.404 150.888 176.328 149.964 176.328 148.824C176.328 147.684 175.404 146.76 174.264 146.76C173.124 146.76 172.2 147.684 172.2 148.824C172.2 149.964 173.124 150.888 174.264 150.888Z" fill="white"/>
</g>
<g opacity="0.62">
<path opacity="0.62" d="M129.456 156.624C130.596 156.624 131.52 155.7 131.52 154.56C131.52 153.42 130.596 152.496 129.456 152.496C128.316 152.496 127.392 153.42 127.392 154.56C127.392 155.7 128.316 156.624 129.456 156.624Z" fill="white"/>
<path opacity="0.62" d="M137.616 156.624C138.756 156.624 139.68 155.7 139.68 154.56C139.68 153.42 138.756 152.496 137.616 152.496C136.476 152.496 135.552 153.42 135.552 154.56C135.552 155.7 136.476 156.624 137.616 156.624Z" fill="white"/>
<path opacity="0.62" d="M145.752 156.624C146.892 156.624 147.816 155.7 147.816 154.56C147.816 153.42 146.892 152.496 145.752 152.496C144.612 152.496 143.688 153.42 143.688 154.56C143.688 155.7 144.612 156.624 145.752 156.624Z" fill="white"/>
<path opacity="0.62" d="M153.888 156.624C155.028 156.624 155.952 155.7 155.952 154.56C155.952 153.42 155.028 152.496 153.888 152.496C152.748 152.496 151.824 153.42 151.824 154.56C151.824 155.7 152.748 156.624 153.888 156.624Z" fill="white"/>
<path opacity="0.62" d="M162.048 156.624C163.188 156.624 164.112 155.7 164.112 154.56C164.112 153.42 163.188 152.496 162.048 152.496C160.908 152.496 159.984 153.42 159.984 154.56C159.984 155.7 160.908 156.624 162.048 156.624Z" fill="white"/>
<path opacity="0.62" d="M170.184 156.624C171.324 156.624 172.248 155.7 172.248 154.56C172.248 153.42 171.324 152.496 170.184 152.496C169.044 152.496 168.12 153.42 168.12 154.56C168.12 155.7 169.044 156.624 170.184 156.624Z" fill="white"/>
</g>
<g opacity="0.62">
<path opacity="0.62" d="M125.4 162.456C126.54 162.456 127.464 161.532 127.464 160.392C127.464 159.252 126.54 158.328 125.4 158.328C124.26 158.328 123.336 159.252 123.336 160.392C123.336 161.532 124.26 162.456 125.4 162.456Z" fill="white"/>
<path opacity="0.62" d="M133.536 162.456C134.676 162.456 135.6 161.532 135.6 160.392C135.6 159.252 134.676 158.328 133.536 158.328C132.396 158.328 131.472 159.252 131.472 160.392C131.472 161.532 132.396 162.456 133.536 162.456Z" fill="white"/>
<path opacity="0.62" d="M141.672 162.456C142.812 162.456 143.736 161.532 143.736 160.392C143.736 159.252 142.812 158.328 141.672 158.328C140.532 158.328 139.608 159.252 139.608 160.392C139.608 161.532 140.532 162.456 141.672 162.456Z" fill="white"/>
<path opacity="0.62" d="M149.832 162.456C150.972 162.456 151.896 161.532 151.896 160.392C151.896 159.252 150.972 158.328 149.832 158.328C148.692 158.328 147.768 159.252 147.768 160.392C147.768 161.532 148.692 162.456 149.832 162.456Z" fill="white"/>
<path opacity="0.62" d="M157.968 162.456C159.108 162.456 160.032 161.532 160.032 160.392C160.032 159.252 159.108 158.328 157.968 158.328C156.828 158.328 155.904 159.252 155.904 160.392C155.904 161.532 156.828 162.456 157.968 162.456Z" fill="white"/>
<path opacity="0.62" d="M166.128 162.456C167.268 162.456 168.192 161.532 168.192 160.392C168.192 159.252 167.268 158.328 166.128 158.328C164.988 158.328 164.064 159.252 164.064 160.392C164.064 161.532 164.988 162.456 166.128 162.456Z" fill="white"/>
<path opacity="0.62" d="M174.264 162.456C175.404 162.456 176.328 161.532 176.328 160.392C176.328 159.252 175.404 158.328 174.264 158.328C173.124 158.328 172.2 159.252 172.2 160.392C172.2 161.532 173.124 162.456 174.264 162.456Z" fill="white"/>
</g>
<g opacity="0.62">
<path opacity="0.62" d="M129.456 168.192C130.596 168.192 131.52 167.268 131.52 166.128C131.52 164.988 130.596 164.064 129.456 164.064C128.316 164.064 127.392 164.988 127.392 166.128C127.392 167.268 128.316 168.192 129.456 168.192Z" fill="white"/>
<path opacity="0.62" d="M137.616 168.192C138.756 168.192 139.68 167.268 139.68 166.128C139.68 164.988 138.756 164.064 137.616 164.064C136.476 164.064 135.552 164.988 135.552 166.128C135.552 167.268 136.476 168.192 137.616 168.192Z" fill="white"/>
<path opacity="0.62" d="M145.752 168.192C146.892 168.192 147.816 167.268 147.816 166.128C147.816 164.988 146.892 164.064 145.752 164.064C144.612 164.064 143.688 164.988 143.688 166.128C143.688 167.268 144.612 168.192 145.752 168.192Z" fill="white"/>
<path opacity="0.62" d="M153.888 168.192C155.028 168.192 155.952 167.268 155.952 166.128C155.952 164.988 155.028 164.064 153.888 164.064C152.748 164.064 151.824 164.988 151.824 166.128C151.824 167.268 152.748 168.192 153.888 168.192Z" fill="white"/>
<path opacity="0.62" d="M162.048 168.192C163.188 168.192 164.112 167.268 164.112 166.128C164.112 164.988 163.188 164.064 162.048 164.064C160.908 164.064 159.984 164.988 159.984 166.128C159.984 167.268 160.908 168.192 162.048 168.192Z" fill="white"/>
<path opacity="0.62" d="M170.184 168.192C171.324 168.192 172.248 167.268 172.248 166.128C172.248 164.988 171.324 164.064 170.184 164.064C169.044 164.064 168.12 164.988 168.12 166.128C168.12 167.268 169.044 168.192 170.184 168.192Z" fill="white"/>
</g>
<g opacity="0.62">
<path opacity="0.62" d="M125.4 173.736C126.54 173.736 127.464 172.812 127.464 171.672C127.464 170.532 126.54 169.608 125.4 169.608C124.26 169.608 123.336 170.532 123.336 171.672C123.336 172.812 124.26 173.736 125.4 173.736Z" fill="white"/>
<path opacity="0.62" d="M133.536 173.736C134.676 173.736 135.6 172.812 135.6 171.672C135.6 170.532 134.676 169.608 133.536 169.608C132.396 169.608 131.472 170.532 131.472 171.672C131.472 172.812 132.396 173.736 133.536 173.736Z" fill="white"/>
<path opacity="0.62" d="M141.672 173.736C142.812 173.736 143.736 172.812 143.736 171.672C143.736 170.532 142.812 169.608 141.672 169.608C140.532 169.608 139.608 170.532 139.608 171.672C139.608 172.812 140.532 173.736 141.672 173.736Z" fill="white"/>
<path opacity="0.62" d="M149.832 173.736C150.972 173.736 151.896 172.812 151.896 171.672C151.896 170.532 150.972 169.608 149.832 169.608C148.692 169.608 147.768 170.532 147.768 171.672C147.768 172.812 148.692 173.736 149.832 173.736Z" fill="white"/>
<path opacity="0.62" d="M157.968 173.736C159.108 173.736 160.032 172.812 160.032 171.672C160.032 170.532 159.108 169.608 157.968 169.608C156.828 169.608 155.904 170.532 155.904 171.672C155.904 172.812 156.828 173.736 157.968 173.736Z" fill="white"/>
<path opacity="0.62" d="M166.128 173.736C167.268 173.736 168.192 172.812 168.192 171.672C168.192 170.532 167.268 169.608 166.128 169.608C164.988 169.608 164.064 170.532 164.064 171.672C164.064 172.812 164.988 173.736 166.128 173.736Z" fill="white"/>
<path opacity="0.62" d="M174.264 173.736C175.404 173.736 176.328 172.812 176.328 171.672C176.328 170.532 175.404 169.608 174.264 169.608C173.124 169.608 172.2 170.532 172.2 171.672C172.2 172.812 173.124 173.736 174.264 173.736Z" fill="white"/>
</g>
<g opacity="0.62">
<path opacity="0.62" d="M129.456 179.448C130.596 179.448 131.52 178.524 131.52 177.384C131.52 176.244 130.596 175.32 129.456 175.32C128.316 175.32 127.392 176.244 127.392 177.384C127.392 178.524 128.316 179.448 129.456 179.448Z" fill="white"/>
<path opacity="0.62" d="M137.616 179.448C138.756 179.448 139.68 178.524 139.68 177.384C139.68 176.244 138.756 175.32 137.616 175.32C136.476 175.32 135.552 176.244 135.552 177.384C135.552 178.524 136.476 179.448 137.616 179.448Z" fill="white"/>
<path opacity="0.62" d="M145.752 179.448C146.892 179.448 147.816 178.524 147.816 177.384C147.816 176.244 146.892 175.32 145.752 175.32C144.612 175.32 143.688 176.244 143.688 177.384C143.688 178.524 144.612 179.448 145.752 179.448Z" fill="white"/>
<path opacity="0.62" d="M153.888 179.448C155.028 179.448 155.952 178.524 155.952 177.384C155.952 176.244 155.028 175.32 153.888 175.32C152.748 175.32 151.824 176.244 151.824 177.384C151.824 178.524 152.748 179.448 153.888 179.448Z" fill="white"/>
<path opacity="0.62" d="M162.048 179.448C163.188 179.448 164.112 178.524 164.112 177.384C164.112 176.244 163.188 175.32 162.048 175.32C160.908 175.32 159.984 176.244 159.984 177.384C159.984 178.524 160.908 179.448 162.048 179.448Z" fill="white"/>
<path opacity="0.62" d="M170.184 179.448C171.324 179.448 172.248 178.524 172.248 177.384C172.248 176.244 171.324 175.32 170.184 175.32C169.044 175.32 168.12 176.244 168.12 177.384C168.12 178.524 169.044 179.448 170.184 179.448Z" fill="white"/>
</g>
</g>
<path d="M176.808 178.776H122.832C122.04 178.776 121.392 178.128 121.392 177.336V148.872C121.392 148.08 122.04 147.432 122.832 147.432H176.808C177.6 147.432 178.248 148.08 178.248 148.872V177.36C178.248 178.152 177.6 178.776 176.808 178.776Z" stroke="#34323A" stroke-width="4.464" stroke-miterlimit="10" stroke-linecap="round" stroke-linejoin="round"/>
<path d="M173.832 112.272H138.696V147.432H173.832V112.272Z" fill="#EF4C4E"/>
<path d="M160.128 112.632H157.2V146.76H160.128V112.632Z" fill="#DD3A43"/>
<path d="M173.688 112.632H139.08V114.552H173.688V112.632Z" fill="#DD3A43"/>
<path d="M173.688 132.264H139.08V134.184H173.688V132.264Z" fill="#DD3A43"/>
<path d="M141.024 113.592H139.08V146.76H141.024V113.592Z" fill="#DD3A43"/>
<path d="M158.664 112.248H153.864V147.408H158.664V112.248Z" fill="#EEF2FA"/>
<path d="M158.664 112.248H153.864V147.408H158.664V112.248Z" stroke="#34323A" stroke-width="2.232" stroke-miterlimit="10" stroke-linecap="round" stroke-linejoin="round"/>
<path d="M173.684 132.608V127.808H138.548V132.608H173.684Z" fill="#EEF2FA"/>
<path d="M173.684 132.608V127.808H138.548V132.608H173.684Z" stroke="#34323A" stroke-width="2.232" stroke-miterlimit="10" stroke-linecap="round" stroke-linejoin="round"/>
<path d="M173.832 112.272H138.696V147.432H173.832V112.272Z" stroke="#34323A" stroke-width="4.464" stroke-miterlimit="10" stroke-linecap="round" stroke-linejoin="round"/>
<path d="M152.424 111.696C152.424 109.752 154.008 108.168 155.952 108.168C157.896 108.168 159.48 109.752 159.48 111.696H152.424Z" fill="white"/>
<path d="M152.424 111.696C152.424 109.752 154.008 108.168 155.952 108.168C157.896 108.168 159.48 109.752 159.48 111.696H152.424Z" stroke="#34323A" stroke-width="2.232" stroke-miterlimit="10" stroke-linecap="round" stroke-linejoin="round"/>
<path d="M158.664 139.704V147.432" stroke="#34323A" stroke-width="0.744" stroke-miterlimit="10" stroke-linecap="round" stroke-linejoin="round"/>
<path d="M160.032 143.568V147.432" stroke="#34323A" stroke-width="0.744" stroke-miterlimit="10" stroke-linecap="round" stroke-linejoin="round"/>
<path d="M167.952 130.224H173.808" stroke="#34323A" stroke-width="0.744" stroke-miterlimit="10" stroke-linecap="round" stroke-linejoin="round"/>
<path d="M142.2 129.816H145.752" stroke="#34323A" stroke-width="0.744" stroke-miterlimit="10" stroke-linecap="round" stroke-linejoin="round"/>
<path d="M158.904 109.56C158.904 109.56 159.432 108.552 161.328 107.544" stroke="#34323A" stroke-width="0.744" stroke-miterlimit="10" stroke-linecap="round" stroke-linejoin="round"/>
<path d="M158.664 110.736C158.664 110.736 161.736 108.6 164.832 108.552" stroke="#34323A" stroke-width="0.744" stroke-miterlimit="10" stroke-linecap="round" stroke-linejoin="round"/>
<path d="M198.958 158.301L196.287 156.783L193.844 161.081L196.515 162.599L198.958 158.301Z" stroke="#34323A" stroke-width="4.464" stroke-miterlimit="10" stroke-linecap="round" stroke-linejoin="round"/>
<path d="M190.824 178.584C195.834 178.584 199.896 174.522 199.896 169.512C199.896 164.502 195.834 160.44 190.824 160.44C185.813 160.44 181.752 164.502 181.752 169.512C181.752 174.522 185.813 178.584 190.824 178.584Z" fill="#EF4C4E"/>
<path d="M184.152 167.376C186.624 163.008 192.168 161.496 196.536 163.968C197.712 164.64 198.672 165.528 199.416 166.56C198.72 164.544 197.328 162.744 195.312 161.616C190.944 159.144 185.4 160.656 182.928 165.024C181.128 168.216 181.44 172.032 183.456 174.816C182.64 172.44 182.808 169.728 184.152 167.376Z" fill="#FF8D93"/>
<path d="M190.824 178.584C195.834 178.584 199.896 174.522 199.896 169.512C199.896 164.502 195.834 160.44 190.824 160.44C185.813 160.44 181.752 164.502 181.752 169.512C181.752 174.522 185.813 178.584 190.824 178.584Z" stroke="#34323A" stroke-width="4.464" stroke-miterlimit="10" stroke-linecap="round" stroke-linejoin="round"/>
<path d="M194.376 155.712L200.64 159.264" stroke="#34323A" stroke-width="4.464" stroke-miterlimit="10" stroke-linecap="round" stroke-linejoin="round"/>
<path d="M191.697 166.209C192.542 165.739 192.988 164.926 192.692 164.393C192.395 163.86 191.47 163.809 190.624 164.28C189.778 164.75 189.333 165.563 189.629 166.096C189.925 166.629 190.851 166.68 191.697 166.209Z" fill="white"/>
<path d="M188.584 167.103C188.767 166.781 188.682 166.386 188.394 166.223C188.106 166.059 187.724 166.188 187.541 166.51C187.357 166.833 187.442 167.228 187.73 167.391C188.018 167.555 188.4 167.426 188.584 167.103Z" fill="white"/>
<path d="M186.528 168.48C187.496 168.48 188.28 167.696 188.28 166.728C188.28 165.76 187.496 164.976 186.528 164.976C185.561 164.976 184.776 165.76 184.776 166.728C184.776 167.696 185.561 168.48 186.528 168.48Z" fill="#FECB5B"/>
<path d="M186.528 168.48C187.496 168.48 188.28 167.696 188.28 166.728C188.28 165.76 187.496 164.976 186.528 164.976C185.561 164.976 184.776 165.76 184.776 166.728C184.776 167.696 185.561 168.48 186.528 168.48Z" stroke="#34323A" stroke-width="2.232" stroke-miterlimit="10" stroke-linecap="round" stroke-linejoin="round"/>
<path d="M190.128 172.536C191.096 172.536 191.88 171.751 191.88 170.784C191.88 169.816 191.096 169.032 190.128 169.032C189.161 169.032 188.376 169.816 188.376 170.784C188.376 171.751 189.161 172.536 190.128 172.536Z" fill="#FECB5B"/>
<path d="M190.128 172.536C191.096 172.536 191.88 171.751 191.88 170.784C191.88 169.816 191.096 169.032 190.128 169.032C189.161 169.032 188.376 169.816 188.376 170.784C188.376 171.751 189.161 172.536 190.128 172.536Z" stroke="#34323A" stroke-width="2.232" stroke-miterlimit="10" stroke-linecap="round" stroke-linejoin="round"/>
<path d="M195.216 173.88C196.184 173.88 196.968 173.095 196.968 172.128C196.968 171.16 196.184 170.376 195.216 170.376C194.249 170.376 193.464 171.16 193.464 172.128C193.464 173.095 194.249 173.88 195.216 173.88Z" fill="#FECB5B"/>
<path d="M195.216 173.88C196.184 173.88 196.968 173.095 196.968 172.128C196.968 171.16 196.184 170.376 195.216 170.376C194.249 170.376 193.464 171.16 193.464 172.128C193.464 173.095 194.249 173.88 195.216 173.88Z" stroke="#34323A" stroke-width="2.232" stroke-miterlimit="10" stroke-linecap="round" stroke-linejoin="round"/>
<path d="M197.568 158.592C198.297 158.592 198.888 158.109 198.888 157.512C198.888 156.916 198.297 156.432 197.568 156.432C196.839 156.432 196.248 156.916 196.248 157.512C196.248 158.109 196.839 158.592 197.568 158.592Z" stroke="#34323A" stroke-width="4.464" stroke-miterlimit="10" stroke-linecap="round" stroke-linejoin="round"/>
</svg>
