<svg width="64" height="64" viewBox="0 0 64 64" fill="none" xmlns="http://www.w3.org/2000/svg">
<g clip-path="url(#clip0_608_14235)">
<path d="M54.71 28.0881C53.722 28.0881 52.632 28.8321 52.632 30.6101H56.71C56.71 28.8321 55.678 28.0881 54.71 28.0881ZM41.666 28.3781C40.754 28.3781 40.188 28.7001 39.778 29.1561L39.8 35.0221C40.188 35.4341 40.744 35.7661 41.666 35.7661C43.122 35.7661 44.1 34.1781 44.1 32.0561C44.1 29.9901 43.1 28.3681 41.666 28.3781ZM58.666 7.11206H5.33205C3.91754 7.11259 2.56113 7.67473 1.56092 8.67494C0.56072 9.67514 -0.00142305 11.0316 -0.00195312 12.4461V51.5581C-0.00142305 52.9726 0.56072 54.329 1.56092 55.3292C2.56113 56.3294 3.91754 56.8915 5.33205 56.8921H58.666C60.0805 56.8915 61.437 56.3294 62.4372 55.3292C63.4374 54.329 63.9995 52.9726 64 51.5581V12.4461C63.9995 11.0316 63.4374 9.67514 62.4372 8.67494C61.437 7.67473 60.0805 7.11259 58.666 7.11206ZM13.578 34.7901C13.578 37.6341 11.322 39.2461 8.03405 39.2681C6.55048 39.2643 5.08327 38.958 3.72205 38.3681V34.6001C5.05605 35.3121 6.73405 35.8561 8.04405 35.8561C8.92205 35.8561 9.55605 35.6241 9.55605 34.8901C9.55605 33.0021 3.55605 33.7121 3.55605 29.3461C3.55605 26.5461 5.69005 24.8781 8.89005 24.8781C10.202 24.8781 11.502 25.0781 12.812 25.6001V29.3121C11.6001 28.6771 10.2579 28.3307 8.89005 28.3001C8.05605 28.3001 7.54605 28.5441 7.54605 29.1561C7.54605 30.9341 13.58 30.0901 13.58 34.7901H13.578ZM21.222 28.5001H18.222V34.1121C18.222 36.4341 20.722 35.7121 21.222 35.5121V38.7221C20.7 39.0121 19.744 39.2441 18.456 39.2441C16.112 39.2441 14.356 37.5221 14.356 35.1881L14.378 22.5321L18.234 21.7101V25.1321H21.222V28.5001ZM29.444 28.7661C28.944 28.6001 27.366 28.3661 26.432 29.5881V38.9661H22.488V25.1321H25.9L26.144 26.2981C27.066 24.5981 28.91 24.9421 29.432 25.1321H29.444V28.7661ZM34.344 38.9661H30.376V25.1321H34.344V38.9661ZM34.344 23.0881L30.376 23.9321V20.7221L34.344 19.8781V23.0881ZM42.578 39.2561C41.2 39.2561 40.356 38.6681 39.79 38.2561L39.778 42.7221L35.834 43.5561V25.1341H39.312L39.512 26.1121C40.056 25.6121 41.056 24.8781 42.6 24.8781C45.368 24.8781 47.978 27.3781 47.978 31.9681C47.978 36.9801 45.4 39.2461 42.578 39.2581V39.2561ZM60.4 33.5341H52.678C52.856 35.3781 54.21 35.9221 55.744 35.9221C57.31 35.9221 58.544 35.5881 59.622 35.0441V38.2221C58.544 38.8101 57.132 39.2441 55.244 39.2441C51.4 39.2441 48.71 36.8321 48.71 32.0781C48.71 28.0561 50.988 24.8681 54.744 24.8681C58.488 24.8681 60.444 28.0561 60.444 32.1001C60.444 32.4881 60.41 33.3121 60.4 33.5341Z" fill="#121518"/>
</g>
<defs>
<clipPath id="clip0_608_14235">
<rect width="64" height="64" fill="white"/>
</clipPath>
</defs>
</svg>
