<svg width="64" height="64" viewBox="0 0 64 64" fill="none" xmlns="http://www.w3.org/2000/svg">
<g clip-path="url(#clip0_608_14239)">
<path d="M53.656 49.1439C53.656 49.8999 53.146 50.4439 52.412 50.4439C51.656 50.4439 51.168 49.8659 51.168 49.1439C51.168 48.4219 51.656 47.8439 52.412 47.8439C53.146 47.8439 53.656 48.4219 53.656 49.1439ZM19.122 47.8439C18.332 47.8439 17.878 48.4219 17.878 49.1439C17.878 49.8659 18.334 50.4439 19.122 50.4439C19.844 50.4439 20.332 49.8999 20.332 49.1439C20.32 48.4219 19.844 47.8439 19.122 47.8439ZM32.178 47.8119C31.578 47.8119 31.21 48.1999 31.122 48.7779H33.244C33.144 48.1439 32.756 47.8119 32.178 47.8119ZM44.156 47.8439C43.4 47.8439 42.946 48.4219 42.946 49.1439C42.946 49.8659 43.402 50.4439 44.156 50.4439C44.912 50.4439 45.4 49.8999 45.4 49.1439C45.4 48.4219 44.91 47.8439 44.156 47.8439ZM55.922 50.7439C55.922 50.7779 55.956 50.7999 55.956 50.8659C55.956 50.8999 55.922 50.9219 55.922 50.9879C55.888 51.0219 55.888 51.0439 55.866 51.0759C55.832 51.1099 55.81 51.1319 55.744 51.1319C55.71 51.1659 55.688 51.1659 55.622 51.1659C55.588 51.1659 55.566 51.1659 55.5 51.1319C55.466 51.1319 55.444 51.0979 55.412 51.0759C55.378 51.0419 55.356 51.0199 55.356 50.9879C55.322 50.9319 55.322 50.8999 55.322 50.8659C55.322 50.8099 55.322 50.7779 55.356 50.7439C55.356 50.6879 55.39 50.6559 55.412 50.6219C55.446 50.5879 55.468 50.5879 55.5 50.5659C55.556 50.5319 55.588 50.5319 55.622 50.5319C55.678 50.5319 55.71 50.5319 55.744 50.5659C55.8 50.5979 55.832 50.5979 55.866 50.6219C55.9 50.6459 55.888 50.6879 55.922 50.7439ZM55.678 50.8999C55.734 50.8999 55.734 50.8659 55.766 50.8659C55.8 50.8319 55.8 50.8099 55.8 50.7779C55.8 50.7459 55.8 50.7219 55.766 50.6899C55.734 50.6899 55.71 50.6559 55.644 50.6559H55.466V51.0439H55.554V50.8879H55.588L55.71 51.0439H55.798L55.678 50.8999ZM64 12.5559V51.6679C63.9995 53.0824 63.4374 54.4388 62.4372 55.439C61.437 56.4393 60.0805 57.0014 58.666 57.0019H5.33205C3.91754 57.0014 2.56113 56.4393 1.56092 55.439C0.56072 54.4388 -0.00142305 53.0824 -0.00195312 51.6679V12.5559C-0.00142305 11.1414 0.56072 9.78501 1.56092 8.7848C2.56113 7.7846 3.91754 7.22245 5.33205 7.22192H58.666C60.0805 7.22245 61.437 7.7846 62.4372 8.7848C63.4374 9.78501 63.9995 11.1414 64 12.5559ZM7.11205 28.0659C7.11205 36.5659 14.012 43.4539 22.5 43.4539C25.5229 43.4453 28.4774 42.5534 31 40.8879C22.9 34.2999 22.956 21.8659 31 15.2759C28.4798 13.6052 25.5238 12.7128 22.5 12.7099C14.012 12.6999 7.11205 19.5979 7.11205 28.0659ZM32 40.1559C39.834 34.0439 39.8 22.1339 32 15.9899C24.2 22.1339 24.166 34.0559 32 40.1559ZM16.188 48.6339C16.188 47.6679 15.554 47.0339 14.554 46.9999C14.042 46.9999 13.498 47.1559 13.132 47.7219C12.866 47.2659 12.41 46.9999 11.776 46.9999C11.5457 46.9964 11.3179 47.0492 11.1126 47.1538C10.9073 47.2584 10.7307 47.4115 10.598 47.5999V47.1119H9.68805V51.1899H10.598C10.598 49.0899 10.32 47.8339 11.598 47.8339C12.732 47.8339 12.51 48.9679 12.51 51.1899H13.388C13.388 49.1559 13.11 47.8339 14.388 47.8339C15.522 47.8339 15.298 48.9459 15.298 51.1899H16.21V48.6339H16.188ZM21.178 47.1119H20.3V47.5999C20.1446 47.4061 19.9463 47.2509 19.7207 47.1468C19.4951 47.0427 19.2484 46.9924 19 46.9999C17.856 46.9999 16.978 47.9119 16.978 49.1439C16.978 50.3879 17.856 51.2879 19 51.2879C19.578 51.2879 20 51.0759 20.3 50.6879V51.1999H21.178V47.1119ZM25.678 49.9559C25.678 48.2899 23.134 49.0439 23.134 48.2659C23.134 47.6319 24.456 47.7339 25.19 48.1439L25.556 47.4219C24.512 46.7439 22.2 46.7559 22.2 48.3339C22.2 49.9219 24.744 49.2559 24.744 49.9999C24.744 50.6999 23.244 50.6439 22.444 50.0879L22.056 50.7879C23.3 51.6319 25.678 51.4539 25.678 49.9539V49.9559ZM29.612 50.9879L29.368 50.2319C28.946 50.4639 28.012 50.7199 28.012 49.7759V47.9319H29.468V47.1099H28.012V45.8659H27.1V47.1099H26.256V47.9219H27.1V49.7779C27.1 51.7339 29.022 51.3779 29.612 50.9879ZM31.088 49.4999H34.144C34.144 47.6999 33.322 46.9879 32.21 46.9879C31.032 46.9879 30.188 47.8659 30.188 49.1319C30.188 51.4099 32.7 51.7879 33.944 50.7099L33.522 50.0439C32.656 50.7559 31.344 50.6879 31.088 49.4999ZM37.656 47.1119C37.146 46.8899 36.368 46.9119 35.968 47.5999V47.1119H35.056V51.1899H35.968V48.8899C35.968 47.5999 37.024 47.7679 37.39 47.9559L37.656 47.1119ZM38.834 49.1439C38.834 47.8759 40.124 47.4659 41.134 48.2099L41.556 47.4879C40.266 46.4779 37.922 47.0319 37.922 49.1539C37.922 51.3539 40.41 51.7979 41.556 50.8199L41.134 50.0979C40.112 50.8199 38.834 50.3879 38.834 49.1419V49.1439ZM46.244 47.1119H45.332V47.5999C44.41 46.3779 42.01 47.0679 42.01 49.1439C42.01 51.2779 44.498 51.8879 45.332 50.6879V51.1999H46.244V47.1119ZM49.988 47.1119C49.722 46.9779 48.766 46.7899 48.3 47.5999V47.1119H47.422V51.1899H48.3V48.8899C48.3 47.6679 49.3 47.7459 49.722 47.9559L49.988 47.1119ZM54.466 45.4559H53.588V47.5999C52.676 46.3899 50.266 47.0339 50.266 49.1439C50.266 51.2999 52.766 51.8759 53.588 50.6879V51.1999H54.466V45.4559ZM55.312 37.1119V37.6239H55.4V37.1119H55.61V37.0239H55.098V37.1119H55.312ZM56.044 50.8659C56.044 50.8099 56.044 50.7439 56.012 50.6879C55.978 50.6539 55.956 50.5999 55.924 50.5659C55.892 50.5319 55.836 50.5099 55.802 50.4779C55.746 50.4779 55.68 50.4439 55.624 50.4439C55.59 50.4439 55.536 50.4779 55.468 50.4779C55.4242 50.5026 55.3833 50.5321 55.346 50.5659C55.29 50.5979 55.258 50.6539 55.258 50.6879C55.224 50.7439 55.224 50.8099 55.224 50.8659C55.224 50.8999 55.224 50.9539 55.258 51.0219C55.258 51.0559 55.292 51.1099 55.346 51.1439C55.3798 51.1818 55.4214 51.2118 55.468 51.2319C55.524 51.2639 55.59 51.2639 55.624 51.2639C55.68 51.2639 55.746 51.2639 55.802 51.2319C55.836 51.1979 55.89 51.1759 55.924 51.1439C55.958 51.1119 55.98 51.0559 56.012 51.0219C56.044 50.9559 56.044 50.8999 56.044 50.8659ZM56.4 37.0119H56.244L56.066 37.3999L55.888 37.0119H55.732V37.6119H55.82V37.1559L55.998 37.5439H56.12L56.276 37.1559V37.6119H56.398L56.4 37.0119ZM56.888 28.0659C56.888 19.5979 49.988 12.6999 41.5 12.6999C38.477 12.7075 35.5223 13.5995 33 15.2659C41.012 21.8559 41.134 34.3219 33 40.8779C35.5216 42.5458 38.4768 43.4379 41.5 43.4439C49.988 43.4559 56.888 36.5659 56.888 28.0659Z" fill="#121518"/>
</g>
<defs>
<clipPath id="clip0_608_14239">
<rect width="64" height="64" fill="white"/>
</clipPath>
</defs>
</svg>
