<svg width="64" height="64" viewBox="0 0 64 64" fill="none" xmlns="http://www.w3.org/2000/svg">
<g clip-path="url(#clip0_608_14237)">
<path d="M52.234 29.2561C52.234 29.2561 53.078 33.3901 53.268 34.2561H49.558L51.336 29.4221C51.314 29.4561 51.702 28.4101 51.924 27.7661L52.234 29.2561ZM64 12.4441V51.5561C63.9995 52.9706 63.4374 54.327 62.4372 55.3272C61.437 56.3274 60.0805 56.8896 58.666 56.8901H5.33205C3.91754 56.8896 2.56113 56.3274 1.56092 55.3272C0.56072 54.327 -0.00142305 52.9706 -0.00195312 51.5561V12.4441C-0.00142305 11.0296 0.56072 9.67319 1.56092 8.67299C2.56113 7.67278 3.91754 7.11064 5.33205 7.11011H58.666C60.0805 7.11064 61.437 7.67278 62.4372 8.67299C63.4374 9.67319 63.9995 11.0296 64 12.4441ZM16.944 40.3561L23.966 23.1121H19.244L14.878 34.8901L14.4 32.5021L12.844 24.5681C12.588 23.4681 11.8 23.1561 10.822 23.1121H3.63405L3.55605 23.4561C5.2022 23.8599 6.78123 24.4999 8.24405 25.3561L12.222 40.3561H16.944ZM27.434 40.3781L30.234 23.1121H25.768L22.98 40.3781H27.434ZM42.978 34.7341C43 32.7681 41.8 31.2681 39.234 30.0341C37.668 29.2441 36.712 28.7121 36.712 27.9001C36.734 27.1661 37.524 26.4101 39.278 26.4101C40.4205 26.3779 41.5556 26.602 42.6 27.0661L43 27.2541L43.612 23.5201C42.3353 23.0313 40.9792 22.7825 39.612 22.7861C35.2 22.7861 32.1 25.1421 32.078 28.4961C32.044 30.9741 34.3 32.3521 35.99 33.1841C37.712 34.0281 38.302 34.5841 38.302 35.3281C38.28 36.4841 36.902 37.0161 35.624 37.0161C33.846 37.0161 32.89 36.7381 31.434 36.0941L30.846 35.8161L30.224 39.6941C31.268 40.1721 33.202 40.5941 35.202 40.6161C39.89 40.6261 42.946 38.3041 42.98 34.7281L42.978 34.7341ZM58.666 40.3781L55.066 23.1121H51.61C50.544 23.1121 49.732 23.4241 49.276 24.5461L42.642 40.3801H47.33C47.33 40.3801 48.096 38.2461 48.264 37.7921H53.998C54.132 38.4041 54.532 40.3801 54.532 40.3801L58.666 40.3781Z" fill="#121518"/>
</g>
<defs>
<clipPath id="clip0_608_14237">
<rect width="64" height="64" fill="white"/>
</clipPath>
</defs>
</svg>
