<svg width="240" height="240" viewBox="0 0 240 240" fill="none" xmlns="http://www.w3.org/2000/svg">
<g clip-path="url(#clip0_645_16030)">
<path d="M119.021 219.605C153.265 219.605 181.025 214.748 181.025 208.757C181.025 202.766 153.265 197.909 119.021 197.909C84.7769 197.909 57.0168 202.766 57.0168 208.757C57.0168 214.748 84.7769 219.605 119.021 219.605Z" fill="#ECEFFA"/>
<path d="M104.988 65.4024L86.88 122.64L64.8432 137.71L68.2944 175.44L106.375 155.04C110.204 152.99 113.407 149.941 115.643 146.217C117.879 142.494 119.065 138.234 119.076 133.891L119.242 67.5312C119.243 66.5741 119.055 65.6261 118.689 64.7414C118.324 63.857 117.787 63.053 117.111 62.376C116.434 61.6987 115.631 61.1616 114.747 60.7951C113.862 60.4286 112.915 60.24 111.958 60.24C110.396 60.2398 108.876 60.7414 107.621 61.6709C106.366 62.6002 105.443 63.9084 104.988 65.4024Z" fill="#FFC195"/>
<path d="M111.958 60.24C110.259 60.24 108.613 60.8345 107.306 61.92C109.218 61.9541 111.041 62.7386 112.379 64.1047C113.718 65.4705 114.466 67.3082 114.461 69.2208L114.295 135.581C114.284 139.924 113.098 144.184 110.862 147.907C108.626 151.631 105.423 154.679 101.594 156.73L68.2176 174.602L68.2944 175.44L106.375 155.04C110.204 152.99 113.407 149.941 115.643 146.217C117.879 142.494 119.065 138.234 119.076 133.891L119.242 67.5312C119.243 66.5741 119.055 65.6261 118.689 64.7414C118.324 63.857 117.787 63.053 117.111 62.376C116.434 61.6987 115.631 61.1616 114.747 60.7951C113.862 60.4286 112.915 60.24 111.958 60.24Z" fill="#FFA688"/>
<path d="M104.988 65.4024L86.88 122.64L64.8432 137.71L68.2944 175.44L106.375 155.04C110.204 152.99 113.407 149.941 115.643 146.217C117.879 142.494 119.065 138.234 119.076 133.891L119.242 67.5312C119.243 66.5741 119.055 65.6261 118.689 64.7414C118.324 63.857 117.787 63.053 117.111 62.376C116.434 61.6987 115.631 61.1616 114.747 60.7951C113.862 60.4286 112.915 60.24 111.958 60.24C110.396 60.2398 108.876 60.7414 107.621 61.6709C106.366 62.6002 105.443 63.9084 104.988 65.4024Z" stroke="#171819" stroke-width="6" stroke-linecap="round" stroke-linejoin="round"/>
<path d="M81.9216 130.99L87.456 147.684C88.6407 151.255 89.2087 155.001 89.136 158.762L88.9152 170.366C88.8919 171.5 88.5437 172.604 87.912 173.545C87.2803 174.487 86.3914 175.228 85.3512 175.68L48.6312 191.621L35.8032 139.949L71.8944 126.223C72.864 125.854 73.8984 125.684 74.9352 125.726C75.972 125.767 76.9896 126.018 77.9266 126.463C78.8638 126.909 79.7009 127.54 80.3875 128.317C81.0742 129.096 81.5959 130.004 81.9216 130.99Z" fill="#A6D51E"/>
<path d="M87.456 147.684L81.9216 130.99C81.4841 129.67 80.6966 128.494 79.6435 127.587C78.5902 126.68 77.3105 126.076 75.9408 125.839L80.5704 139.802C81.7541 143.372 82.3222 147.118 82.2504 150.878L82.0248 162.48C82.0037 163.614 81.6569 164.718 81.0257 165.661C80.3947 166.603 79.506 167.344 78.4656 167.796L46.2 181.81L48.6384 191.623L85.3584 175.682C86.3986 175.23 87.2871 174.489 87.9185 173.546C88.5497 172.604 88.8974 171.5 88.92 170.366L89.1408 158.762C89.2121 155.001 88.6423 151.255 87.456 147.684Z" fill="#C5E765"/>
<path d="M81.9216 130.99L87.456 147.684C88.6407 151.255 89.2087 155.001 89.136 158.762L88.9152 170.366C88.8919 171.5 88.5437 172.604 87.912 173.545C87.2803 174.487 86.3914 175.228 85.3512 175.68L48.6312 191.621L35.8032 139.949L71.8944 126.223C72.864 125.854 73.8984 125.684 74.9352 125.726C75.972 125.767 76.9896 126.018 77.9266 126.463C78.8638 126.909 79.7009 127.54 80.3875 128.317C81.0742 129.096 81.5959 130.004 81.9216 130.99Z" stroke="#171819" stroke-width="6" stroke-linecap="round" stroke-linejoin="round"/>
<path d="M113.335 94.044C112.482 94.0447 111.639 94.235 110.869 94.601C110.098 94.967 109.418 95.4998 108.878 96.1608C110.367 96.2179 111.776 96.8498 112.809 97.9241C113.842 98.9981 114.419 100.431 114.418 101.921V127.92H119.09V99.7992C119.089 98.2733 118.482 96.81 117.403 95.731C116.324 94.6519 114.861 94.0452 113.335 94.044Z" fill="#FFA688"/>
<path d="M100.994 123.586L107.774 98.316C108.102 97.0913 108.824 96.0086 109.83 95.2363C110.835 94.464 112.067 94.0447 113.335 94.044C114.863 94.044 116.328 94.651 117.408 95.731C118.488 96.8112 119.095 98.2764 119.095 99.804V127.92" stroke="#171819" stroke-width="6" stroke-linecap="round" stroke-linejoin="round"/>
<path d="M133.498 65.4024L151.606 122.64L173.642 137.71L170.191 175.44L132.11 155.04C128.281 152.99 125.079 149.941 122.843 146.217C120.607 142.494 119.42 138.234 119.41 133.891L119.242 67.5312C119.241 66.5741 119.43 65.6261 119.796 64.7417C120.162 63.8573 120.698 63.0535 121.375 62.3765C122.051 61.6994 122.855 61.1623 123.739 60.7958C124.623 60.4291 125.571 60.2402 126.528 60.24C128.09 60.2398 129.61 60.7414 130.865 61.6709C132.12 62.6002 133.043 63.9084 133.498 65.4024Z" fill="#FFC195"/>
<path d="M126.528 60.24C128.227 60.24 129.872 60.8345 131.179 61.92C129.267 61.9541 127.444 62.7386 126.105 64.1045C124.766 65.4705 124.018 67.308 124.022 69.2208L124.19 135.581C124.201 139.924 125.388 144.184 127.624 147.907C129.86 151.631 133.062 154.679 136.891 156.73L170.268 174.6L170.191 175.438L132.11 155.038C128.281 152.987 125.079 149.939 122.843 146.215C120.607 142.492 119.42 138.232 119.41 133.889L119.242 67.5288C119.242 65.5961 120.009 63.7425 121.376 62.3757C122.742 61.0089 124.595 60.2407 126.528 60.24Z" fill="#FFA688"/>
<path d="M133.498 65.4024L151.606 122.64L173.642 137.71L170.191 175.44L132.11 155.04C128.281 152.99 125.079 149.941 122.843 146.217C120.607 142.494 119.42 138.234 119.41 133.891L119.242 67.5312C119.241 66.5741 119.43 65.6261 119.796 64.7417C120.162 63.8573 120.698 63.0535 121.375 62.3765C122.051 61.6994 122.855 61.1623 123.739 60.7958C124.623 60.4291 125.571 60.2402 126.528 60.24C128.09 60.2398 129.61 60.7414 130.865 61.6709C132.12 62.6002 133.043 63.9084 133.498 65.4024Z" stroke="#171819" stroke-width="6" stroke-linecap="round" stroke-linejoin="round"/>
<path d="M156.564 130.99L151.03 147.684C149.846 151.255 149.278 155.001 149.35 158.762L149.573 170.366C149.596 171.5 149.944 172.603 150.575 173.545C151.206 174.487 152.095 175.228 153.134 175.68L189.854 191.621L202.682 139.949L166.584 126.226C165.615 125.857 164.581 125.689 163.546 125.73C162.51 125.772 161.493 126.023 160.557 126.468C159.621 126.913 158.784 127.543 158.098 128.321C157.412 129.097 156.89 130.005 156.564 130.99Z" fill="#A6D51E"/>
<path d="M151.03 147.684L156.564 130.99C157.002 129.67 157.789 128.494 158.842 127.587C159.895 126.68 161.175 126.076 162.545 125.839L157.92 139.802C156.736 143.372 156.168 147.118 156.24 150.878L156.463 162.482C156.484 163.616 156.831 164.72 157.462 165.663C158.093 166.606 158.982 167.347 160.022 167.798L192.286 181.81L189.84 191.623L153.134 175.68C152.094 175.228 151.206 174.487 150.574 173.544C149.943 172.602 149.595 171.498 149.573 170.364L149.35 158.76C149.278 154.999 149.846 151.254 151.03 147.684Z" fill="#C5E765"/>
<path d="M156.564 130.99L151.03 147.684C149.846 151.255 149.278 155.001 149.35 158.762L149.573 170.366C149.596 171.5 149.944 172.603 150.575 173.545C151.206 174.487 152.095 175.228 153.134 175.68L189.854 191.621L202.682 139.949L166.584 126.226C165.615 125.857 164.581 125.689 163.546 125.73C162.51 125.772 161.493 126.023 160.557 126.468C159.621 126.913 158.784 127.543 158.098 128.321C157.412 129.097 156.89 130.005 156.564 130.99Z" stroke="#171819" stroke-width="6" stroke-linecap="round" stroke-linejoin="round"/>
<path d="M125.15 94.044C126.002 94.0457 126.844 94.2365 127.613 94.6025C128.382 94.9687 129.061 95.5008 129.6 96.1608C128.111 96.2179 126.702 96.8498 125.669 97.9241C124.636 98.9981 124.06 100.431 124.061 101.921V127.92H119.395V99.7992C119.396 98.2733 120.003 96.81 121.082 95.731C122.161 94.6519 123.624 94.0452 125.15 94.044Z" fill="#FFA688"/>
<path d="M137.491 123.586L130.711 98.316C130.384 97.0913 129.661 96.0086 128.656 95.2363C127.65 94.464 126.418 94.0447 125.15 94.044C123.623 94.044 122.158 94.651 121.077 95.731C119.997 96.8112 119.39 98.2764 119.39 99.804V127.92" stroke="#171819" stroke-width="6" stroke-linecap="round" stroke-linejoin="round"/>
</g>
<defs>
<clipPath id="clip0_645_16030">
<rect width="240" height="240" fill="white"/>
</clipPath>
</defs>
</svg>
