<svg width="24" height="24" viewBox="0 0 24 24" fill="none" xmlns="http://www.w3.org/2000/svg">
<path d="M0.999987 14C0.734812 14.0002 0.480573 14.1056 0.293077 14.2931C0.105582 14.4806 0.000222856 14.7348 0 15V23C0.000223198 23.2654 0.105582 23.5196 0.293077 23.7071C0.480573 23.8946 0.734817 24 0.999987 24H8.99993C9.26533 24 9.51957 23.8946 9.70707 23.7071C9.89456 23.5196 9.99992 23.2654 9.99992 23V15C9.99992 14.7348 9.89456 14.4806 9.70707 14.2931C9.51957 14.1054 9.26533 14 8.99993 14H0.999987ZM1.99998 16H7.99994V22H1.99998V16Z" fill="#ECEFFA"/>
<path d="M14 14C13.7348 14.0002 13.4806 14.1056 13.2931 14.2931C13.1056 14.4806 13.0002 14.7348 13 15V23C13.0002 23.2654 13.1056 23.5196 13.2931 23.7071C13.4806 23.8946 13.7348 24 14 24H21.9999C22.2653 24 22.5196 23.8946 22.7071 23.7071C22.8946 23.5196 22.9999 23.2654 22.9999 23V15C22.9999 14.7348 22.8946 14.4806 22.7071 14.2931C22.5196 14.1056 22.2653 14.0002 21.9999 14H14ZM15 16H20.9999V22H15V16Z" fill="#ECEFFA"/>
<path d="M17.9844 0.00011036C17.7248 0.00435143 17.4768 0.109487 17.2931 0.293189L12.2931 5.29317C12.1056 5.48066 12.0002 5.73513 12.0002 6.00031C12.0002 6.26548 12.1056 6.51972 12.2931 6.70722L17.2931 11.7072C17.4806 11.8947 17.7348 12.0001 18 12.0001C18.2651 12.0001 18.5196 11.8947 18.7071 11.7072L23.7071 6.70722C23.8946 6.51972 23.9999 6.26548 23.9999 6.00031C23.9999 5.73514 23.8946 5.48066 23.7071 5.29317L18.7071 0.293189C18.5158 0.101893 18.2551 -0.00390677 17.9844 0.00011036ZM17.9998 2.41416L21.5857 6.00008L17.9998 9.58601L14.4139 6.00008L17.9998 2.41416Z" fill="#ECEFFA"/>
<path d="M0.999987 1C0.734812 1.00022 0.480573 1.10558 0.293077 1.29308C0.105582 1.48058 0.000222856 1.73482 0 1.99999V9.99996C0.000223198 10.2654 0.105582 10.5196 0.293077 10.7071C0.480573 10.8946 0.734817 11 0.999987 11H8.99993C9.26533 11 9.51957 10.8946 9.70707 10.7071C9.89456 10.5196 9.99992 10.2654 9.99992 9.99996V1.99999C9.99992 1.73481 9.89456 1.48058 9.70707 1.29308C9.51957 1.10535 9.26533 1 8.99993 1H0.999987ZM1.99998 2.99999H7.99994V8.99997H1.99998V2.99999Z" fill="#ECEFFA"/>
</svg>
